<svg xmlns="http://www.w3.org/2000/svg" width="376.187" height="68.451" viewBox="0 0 376.187 68.451"><defs><style>.a,.b{fill:#828282;}.b{font-size:9px;font-family:ArialMT, Arial;}</style></defs><g transform="translate(0)"><path class="a" d="M93.311,63.166a8.3,8.3,0,0,0,2.847,5.693,8.9,8.9,0,0,0,5.9,2.031,9.705,9.705,0,0,0,5.114-1.253,14.172,14.172,0,0,0,3.625-3.15l5.826,4.4a16.507,16.507,0,0,1-6.376,5.019,18.741,18.741,0,0,1-7.392,1.49,19.512,19.512,0,0,1-6.917-1.224,16.636,16.636,0,0,1-5.627-3.454,16.2,16.2,0,0,1-3.757-5.39,18.439,18.439,0,0,1,0-14.024,16.121,16.121,0,0,1,9.384-8.843,19.474,19.474,0,0,1,6.917-1.224,15.9,15.9,0,0,1,6.206,1.186,13.212,13.212,0,0,1,4.811,3.425,15.928,15.928,0,0,1,3.122,5.522,23.357,23.357,0,0,1,1.12,7.562v2.239h-24.8Zm16.672-6.1a7.677,7.677,0,0,0-2.239-5.665,8.392,8.392,0,0,0-6.035-2.069,7.933,7.933,0,0,0-5.8,2.1A9.362,9.362,0,0,0,93.3,57.055h16.681Z" transform="translate(-31.654 -25.344)"/><path class="a" d="M145.1,53.073a7.463,7.463,0,0,0-6.376-3.321,6.865,6.865,0,0,0-3.188.816,2.756,2.756,0,0,0-1.556,2.647,2.281,2.281,0,0,0,1.29,2.173,13.853,13.853,0,0,0,3.255,1.148c1.309.313,2.723.645,4.241.987A16.95,16.95,0,0,1,147,59.079a9.314,9.314,0,0,1,3.255,2.885,8.638,8.638,0,0,1,1.29,5.02,9.071,9.071,0,0,1-1.253,4.915,9.766,9.766,0,0,1-3.255,3.217,14.42,14.42,0,0,1-4.507,1.765,23.765,23.765,0,0,1-5.019.541,21.6,21.6,0,0,1-6.984-1.082,13.214,13.214,0,0,1-5.693-3.928l5.427-5.086a15.088,15.088,0,0,0,3.359,2.885,8.082,8.082,0,0,0,4.374,1.12,8.929,8.929,0,0,0,1.831-.2,5.918,5.918,0,0,0,1.765-.674,4.088,4.088,0,0,0,1.319-1.186,3.028,3.028,0,0,0-.778-4.166,11.4,11.4,0,0,0-3.255-1.319c-1.309-.342-2.723-.655-4.232-.949a16.538,16.538,0,0,1-4.241-1.423,8.847,8.847,0,0,1-3.255-2.742,8.093,8.093,0,0,1-1.29-4.877,9.5,9.5,0,0,1,1.12-4.716,9.82,9.82,0,0,1,2.951-3.283,12.876,12.876,0,0,1,4.2-1.9,19.207,19.207,0,0,1,11.254.512,10.512,10.512,0,0,1,5.152,3.833Z" transform="translate(-33.682 -25.347)"/><path class="a" d="M155.62,50.5V43.592h6.708V34.17h8.132v9.422h8.948v6.917H170.46V64.742a7.113,7.113,0,0,0,.911,3.862c.607.949,1.822,1.423,3.625,1.423a12.862,12.862,0,0,0,2.372-.237,5.021,5.021,0,0,0,2.031-.778v6.851a10.273,10.273,0,0,1-3.15.844,25.879,25.879,0,0,1-3.283.237,16.632,16.632,0,0,1-5.323-.712,6.981,6.981,0,0,1-3.255-2.173,8.161,8.161,0,0,1-1.623-3.625,25.411,25.411,0,0,1-.436-5.02V50.5Z" transform="translate(-35.257 -24.881)"/><path class="a" d="M195.612,47.627h.133a9.47,9.47,0,0,1,3.359-3.691,10.673,10.673,0,0,1,6.206-1.661,12.735,12.735,0,0,1,5.522,1.082,10.35,10.35,0,0,1,3.691,2.847,10.815,10.815,0,0,1,2.031,4.071,18.674,18.674,0,0,1,.607,4.811V75.628h-8.132V59.156c0-.9-.047-1.907-.133-3.017a11.186,11.186,0,0,0-.712-3.122,5.951,5.951,0,0,0-1.793-2.439,5.167,5.167,0,0,0-3.321-.987,7.871,7.871,0,0,0-3.425.674,6.565,6.565,0,0,0-2.306,1.831,7.235,7.235,0,0,0-1.319,2.647,11.638,11.638,0,0,0-.408,3.122V75.628H187.48V24.38h8.132Z" transform="translate(-36.886 -24.38)"/><path class="a" d="M234.9,63.166a8.3,8.3,0,0,0,2.847,5.693,8.9,8.9,0,0,0,5.9,2.031,9.705,9.705,0,0,0,5.114-1.253,14.174,14.174,0,0,0,3.625-3.15l5.826,4.4a16.507,16.507,0,0,1-6.376,5.019,18.741,18.741,0,0,1-7.392,1.49,19.511,19.511,0,0,1-6.917-1.224,16.636,16.636,0,0,1-5.627-3.454,16.2,16.2,0,0,1-3.758-5.39,18.439,18.439,0,0,1,0-14.024,16.121,16.121,0,0,1,9.384-8.843,19.474,19.474,0,0,1,6.917-1.224,15.9,15.9,0,0,1,6.206,1.186,13.212,13.212,0,0,1,4.811,3.425,15.929,15.929,0,0,1,3.122,5.522,23.358,23.358,0,0,1,1.12,7.562v2.239H234.9Zm16.681-6.1a7.677,7.677,0,0,0-2.239-5.665,8.407,8.407,0,0,0-6.035-2.069,7.933,7.933,0,0,0-5.8,2.1,9.362,9.362,0,0,0-2.609,5.627h16.681Z" transform="translate(-38.894 -25.344)"/><path class="a" d="M338.075,53.811a13.035,13.035,0,0,0-2.98-2.372,6.4,6.4,0,0,0-3.188-.882,9.494,9.494,0,0,0-4,.816,9.311,9.311,0,0,0-3.017,2.173,9.142,9.142,0,0,0-1.9,3.122,10.718,10.718,0,0,0,0,7.325,9.233,9.233,0,0,0,1.9,3.122,9.6,9.6,0,0,0,3.017,2.173,9.463,9.463,0,0,0,4,.816,8,8,0,0,0,3.52-.778,7.789,7.789,0,0,0,2.78-2.268l5.427,5.826a12.4,12.4,0,0,1-2.809,2.1A19.131,19.131,0,0,1,337.61,76.4a19.994,19.994,0,0,1-3.122.778,16.335,16.335,0,0,1-2.571.237A19.511,19.511,0,0,1,325,76.2a16.637,16.637,0,0,1-5.627-3.454,16.2,16.2,0,0,1-3.758-5.39,18.439,18.439,0,0,1,0-14.024A16.121,16.121,0,0,1,325,44.484a19.511,19.511,0,0,1,6.917-1.224,17.809,17.809,0,0,1,6.272,1.186,14.371,14.371,0,0,1,5.522,3.758Z" transform="translate(-43.367 -25.345)"/><path class="a" d="M348.65,60.32a17.288,17.288,0,0,1,1.385-7.012,16.121,16.121,0,0,1,9.384-8.843,20.157,20.157,0,0,1,13.834,0,16.636,16.636,0,0,1,5.627,3.454,16.2,16.2,0,0,1,3.757,5.39,18.439,18.439,0,0,1,0,14.024,16.121,16.121,0,0,1-9.384,8.843,20.158,20.158,0,0,1-13.834,0,16.635,16.635,0,0,1-5.627-3.454,16.2,16.2,0,0,1-3.758-5.39A17.1,17.1,0,0,1,348.65,60.32Zm8.132,0a10.673,10.673,0,0,0,.645,3.663,9.231,9.231,0,0,0,1.9,3.122,9.6,9.6,0,0,0,3.017,2.173,10.209,10.209,0,0,0,8,0,9.312,9.312,0,0,0,3.017-2.173,9.142,9.142,0,0,0,1.9-3.122,10.717,10.717,0,0,0,0-7.325,9.233,9.233,0,0,0-1.9-3.122,9.6,9.6,0,0,0-3.017-2.173,10.209,10.209,0,0,0-8,0,9.309,9.309,0,0,0-3.017,2.173,9.14,9.14,0,0,0-1.9,3.122A10.673,10.673,0,0,0,356.782,60.32Z" transform="translate(-45.128 -25.344)"/><path class="a" d="M393.939,44.056h7.724v5.219h.133a11.573,11.573,0,0,1,3.52-4.241,10.451,10.451,0,0,1,6.443-1.793,12.735,12.735,0,0,1,5.522,1.082,10.351,10.351,0,0,1,3.691,2.847A10.817,10.817,0,0,1,423,51.239a18.673,18.673,0,0,1,.607,4.811V76.593h-8.132V60.12c0-.9-.047-1.907-.133-3.017a11.179,11.179,0,0,0-.712-3.122,5.95,5.95,0,0,0-1.793-2.439,5.149,5.149,0,0,0-3.321-.987,7.871,7.871,0,0,0-3.425.674,6.564,6.564,0,0,0-2.306,1.831,7.234,7.234,0,0,0-1.319,2.647,11.639,11.639,0,0,0-.408,3.122V76.593H393.93V44.056Z" transform="translate(-47.443 -25.344)"/><g transform="translate(0 3.255)"><path class="a" d="M57.037,27.81H49.645L28.77,75.8h9.555l4.336-10.978L45.574,57.5,53.1,37.972,60.491,57.5s1.205,3.017,1.831,4.441c.342.788,1.148,2.885,1.148,2.885L67.949,75.8h9.764Z" transform="translate(-28.77 -27.81)"/></g><path class="a" d="M53.907,52.14,46.42,68.906H60.947Z" transform="translate(-29.673 -25.8)"/><path class="a" d="M295.864,43.6h-6.576v-.009H280.34V34.17h-8.132v9.422H265.5v6.917h6.708V65.416a25.471,25.471,0,0,0,.437,5.02,8.266,8.266,0,0,0,1.622,3.625,7.053,7.053,0,0,0,3.255,2.173,16.632,16.632,0,0,0,5.323.712,25.76,25.76,0,0,0,3.283-.237,10.47,10.47,0,0,0,3.15-.844V69.012a4.888,4.888,0,0,1-2.031.778,12.942,12.942,0,0,1-2.372.237c-1.812,0-3.017-.474-3.625-1.423a7.113,7.113,0,0,1-.911-3.862V50.509h8.948v-.038h6.576V76.138H304V43.592h-8.132V43.6Z" transform="translate(-40.876 -24.881)"/><rect class="a" width="376.187" height="12.43" transform="translate(0 56.021)"/><path class="a" d="M301.432,37.074a5.392,5.392,0,0,0,3.757-1.385,4.755,4.755,0,0,0,0-6.984,5.349,5.349,0,0,0-3.757-1.385,4.976,4.976,0,0,0-3.691,1.461,4.745,4.745,0,0,0,0,6.851A5.073,5.073,0,0,0,301.432,37.074Z" transform="translate(-42.449 -24.53)"/><text class="b" transform="translate(298.115 62.703)"><tspan x="0" y="0">ULTRALIFT</tspan></text></g></svg>