<svg xmlns="http://www.w3.org/2000/svg" width="272.118" height="45.813" viewBox="0 0 272.118 45.813"><defs><style>.a{fill:#828282;fill-rule:evenodd;}</style></defs><path class="a" d="M88.917,65.165a16,16,0,0,1-9.406,1.691,13.114,13.114,0,0,1-8.233-3.463,2.878,2.878,0,0,0-2.126-.89A3.029,3.029,0,0,0,67,67.67q5.337,5.337,14.346,5.337a21.644,21.644,0,0,0,10.422-2.5,8.787,8.787,0,0,0,2.662-2.2A8.515,8.515,0,0,0,96.3,61.014a8.939,8.939,0,0,0-4.813-6.346,25.181,25.181,0,0,0-7.16-2.227l-.379-.076a71.2,71.2,0,0,1-6.977-1.716c-.12-.032-.3-.088-.536-.145a16.261,16.261,0,0,1-2.908-1.06A2.459,2.459,0,0,1,72.294,48a2.74,2.74,0,0,1,.656-2.839q2.574-2.8,9.482-2.372,5.725.35,8.889,3.514A3.024,3.024,0,0,0,95.6,42.025c-3.167-3.186-7.438-4.946-12.781-5.287q-9.766-.606-14.32,4.3A9.186,9.186,0,0,0,66.5,49.747,8.171,8.171,0,0,0,70.067,54.4,19.711,19.711,0,0,0,74.748,56.3c.2.069.36.12.473.158,2.5.744,5.015,1.363,7.564,1.874l.4.076a20.183,20.183,0,0,1,5.413,1.59,3.208,3.208,0,0,1,1.747,2.227,2.724,2.724,0,0,1-.656,2.3,2.613,2.613,0,0,1-.776.643Zm32.42,7.842a17.48,17.48,0,0,0,12.825-5.312,2.934,2.934,0,0,0,.89-2.151,3.037,3.037,0,0,0-3.016-3.016,2.944,2.944,0,0,0-2.151.89,12.1,12.1,0,0,1-20.661-8.586,12.107,12.107,0,0,1,20.661-8.548,2.934,2.934,0,0,0,2.151.89,3.024,3.024,0,0,0,2.126-5.167,18.15,18.15,0,0,0-30.988,12.825,18.136,18.136,0,0,0,18.162,18.175Zm47.043,0a2.888,2.888,0,0,0,2.126-.89,3.031,3.031,0,0,0,0-4.277,2.9,2.9,0,0,0-2.126-.883h-21.2V57.872h15.134a3.025,3.025,0,1,0,0-6.05H147.177V42.738h21.2a2.906,2.906,0,0,0,2.126-.883,3.038,3.038,0,0,0,0-4.284,2.9,2.9,0,0,0-2.126-.883H144.162a2.963,2.963,0,0,0-2.151.883,2.931,2.931,0,0,0-.883,2.132V69.96A3.026,3.026,0,0,0,144.162,73H168.38Zm12.119,0a3.037,3.037,0,0,0,3.015-3.041v-22L203.9,71.947a2.908,2.908,0,0,0,2.309,1.06,3.118,3.118,0,0,0,1.06-.183,2.8,2.8,0,0,0,1.968-2.858V39.71a3.025,3.025,0,0,0-6.05,0V61.74L182.8,37.754a3.022,3.022,0,0,0-5.337,1.949V69.96a3.037,3.037,0,0,0,3.034,3.047Zm78.718-30.262h12.119a6.05,6.05,0,0,1,0,12.1H259.218v-12.1Zm-3.009,30.262a3.037,3.037,0,0,0,3.016-3.041V60.913h11.942l6.674,10.674a2.867,2.867,0,0,0,2.58,1.419,3.035,3.035,0,0,0,2.94-2.353,2.922,2.922,0,0,0-.379-2.277l-5.665-9.059a12.043,12.043,0,0,0,4.422-4.353,11.91,11.91,0,0,0,1.691-6.176A12.083,12.083,0,0,0,271.343,36.7H256.208a2.963,2.963,0,0,0-2.151.883,2.931,2.931,0,0,0-.883,2.132V69.972a3.016,3.016,0,0,0,3.034,3.034Zm-25.007,0a15.9,15.9,0,0,0,15.891-15.891V39.71a3.025,3.025,0,0,0-6.05,0V57.115a9.838,9.838,0,1,1-19.676,0V39.71a3.026,3.026,0,0,0-3.016-3.015,2.963,2.963,0,0,0-2.151.883,2.931,2.931,0,0,0-.883,2.132V57.115A15.9,15.9,0,0,0,231.2,73.007ZM41.262,61.822c2.088,3.918-2.82,11.166-7.261,11.166H20.122c-6.479,0-10.952-7.76-7.722-13.242L29.692,30.4c2.593-4.4,10.8-4.107,13.16-.069l17.3,29.581c2.479,4.239-1.388,13.1-6.3,13.1H47.293A2.3,2.3,0,0,1,45.559,71.8a4.481,4.481,0,0,1-.707-2.587c.088-1.552,1.464-2.99,2.542-2.99H52.34c1.3,0,2.656-2.227,1.994-3.35l-16.049-27.3c-1.079-1.836-2.883-1.779-3.981.095L19.006,61.74c-1.451,2.473-.246,4.384,1.274,4.384H33.44c.839,0,1.811-1.325,1.438-2.076l-4.864-9.728c-.5-1,.158-2.883,1.615-3.684,1.325-.732,3.413-.479,3.892.416Z" transform="translate(-11.325 -27.2)"/></svg>