<svg xmlns="http://www.w3.org/2000/svg" width="258.478" height="77" viewBox="0 0 258.478 77"><defs><style>.a{fill:#828282;}</style></defs><g transform="translate(0)"><path class="a" d="M572.3,153.3q0-3.107.173-6.111t.173-5.9q0-5.248-.243-8.667t-.519-5.455a15.045,15.045,0,0,0-.586-2.867c-.207-.553-.334-.875-.38-.966.6-.183,1.175-.334,1.728-.449a8.267,8.267,0,0,1,1.658-.173,6.706,6.706,0,0,1,4.006,1.139,3.792,3.792,0,0,1,1.589,3.28,5.726,5.726,0,0,1-.07.863,3.591,3.591,0,0,1-.207.793,4.971,4.971,0,0,0-.207.9l.276.07a9.614,9.614,0,0,1,1.9-2.934,14.772,14.772,0,0,1,2.624-2.208,11.6,11.6,0,0,1,2.97-1.415,9.9,9.9,0,0,1,2.936-.483,3.611,3.611,0,0,1,2.691.759,2.761,2.761,0,0,1,.69,1.934,15.807,15.807,0,0,1-.207,2.487,12.08,12.08,0,0,1-.622,2.417l-.348.135q-1.658-.829-3-1.382a6.669,6.669,0,0,0-2.518-.553,5.45,5.45,0,0,0-3.35,1,6.867,6.867,0,0,0-2.141,2.761,14.67,14.67,0,0,0-1.105,4.179,41.989,41.989,0,0,0-.31,5.318q0,5.111.243,8.252t.517,4.9a13.107,13.107,0,0,0,.519,2.381c.161.413.264.622.31.622q-1.312.205-2.518.449a11.822,11.822,0,0,1-2.314.243,6.025,6.025,0,0,1-1.761-.243,3.263,3.263,0,0,1-1.382-.829,3.78,3.78,0,0,1-.9-1.622A9.311,9.311,0,0,1,572.3,153.3Z" transform="translate(-437.655 -96.275)"/><path class="a" d="M16.652,128.872q.126-.768.32-2.884.126-1.86.257-5.354t.127-9.52c0-.642-.012-1.516-.031-2.629s-.043-2.34-.065-3.686-.043-2.735-.065-4.167-.043-2.8-.065-4.1-.043-2.468-.065-3.494-.055-1.8-.1-2.309q-.13-2.307-.223-3.686t-.223-2.083c-.087-.555-.149-.918-.192-1.089q.768.065,1.605.065.706.065,1.608.065h9.9a24.419,24.419,0,0,1,6.94.865,13.687,13.687,0,0,1,4.691,2.309,8.921,8.921,0,0,1,2.634,3.3,9.425,9.425,0,0,1,.836,3.91,11.784,11.784,0,0,1-1.521,5.546,13.194,13.194,0,0,1-4.563,4.84v.32a19.2,19.2,0,0,1,3.907,1.442,13.321,13.321,0,0,1,3.268,2.276,10.274,10.274,0,0,1,2.242,3.141,9.647,9.647,0,0,1,.834,4.1,13.623,13.623,0,0,1-1.026,5.289,12.811,12.811,0,0,1-2.948,4.328,13.654,13.654,0,0,1-4.712,2.917,17.739,17.739,0,0,1-6.315,1.057q-1.73,0-3.109-.127t-3.174-.257q-1.795-.13-4.328-.257T16.652,128.872Zm8.269-6.219a2.08,2.08,0,0,0,.7,1.6,5.313,5.313,0,0,0,1.73,1.026,8.928,8.928,0,0,0,2.211.512,19.867,19.867,0,0,0,2.148.127,11.136,11.136,0,0,0,4.616-.8,6.392,6.392,0,0,0,2.629-2.083,7.185,7.185,0,0,0,1.185-2.886,18.05,18.05,0,0,0,.288-3.206,8.913,8.913,0,0,0-4.808-8.43,16.023,16.023,0,0,0-5.032-1.665,40.641,40.641,0,0,0-5.866-.545c0,.384-.012.769-.031,1.153s-.031.791-.031,1.218q0,1.153.031,2.372t.031,2.5q0,2.116.065,4.424T24.921,122.654Zm-.192-19.3q2.754.065,5.546.257a44.03,44.03,0,0,1,5.416.7,16.929,16.929,0,0,0,1.572-3.686,13.621,13.621,0,0,0,.065-7.4,7.039,7.039,0,0,0-1.7-3.013A8.559,8.559,0,0,0,32.3,88.164,15.94,15.94,0,0,0,26.91,87.4H25.629a1.175,1.175,0,0,0-.257.031,1.045,1.045,0,0,1-.257.031h-.192q0,3.846-.065,7.692T24.728,103.358Z" transform="translate(-16.33 -66.768)"/><path class="a" d="M175.56,144.771a21.485,21.485,0,0,1,1.093-6.762,19.355,19.355,0,0,1,3.117-5.9,15.793,15.793,0,0,1,4.94-4.176,13.466,13.466,0,0,1,6.565-1.591,16.044,16.044,0,0,1,5.57.863,11.955,11.955,0,0,1,3.813,2.187,7.807,7.807,0,0,1,2.155,3.049,9.39,9.39,0,0,1,.663,3.381,7.12,7.12,0,0,1-1.192,4.21,9.879,9.879,0,0,1-3.016,2.785,12.92,12.92,0,0,1-4.111,1.559,22.417,22.417,0,0,1-4.477.464,12.494,12.494,0,0,1-2.785-.3q-1.326-.306-2.321-.644a13.888,13.888,0,0,1-2.187-.944l-.264.132a19.988,19.988,0,0,0,.694,5.45,13.061,13.061,0,0,0,2.023,4.256,8.942,8.942,0,0,0,3.282,2.759,10.165,10.165,0,0,0,4.542.964,13.346,13.346,0,0,0,3.912-.565,20.98,20.98,0,0,0,3.316-1.293,16.433,16.433,0,0,0,3.181-1.922l.332.332a11.549,11.549,0,0,1-2.521,4.244,14.728,14.728,0,0,1-4.111,2.884,15.164,15.164,0,0,1-6.764,1.293,15.4,15.4,0,0,1-6.166-1.228,14.264,14.264,0,0,1-4.907-3.448,15.945,15.945,0,0,1-3.215-5.3A18.878,18.878,0,0,1,175.56,144.771Zm7.625-4.9c0,.132.187.286.565.461a10.439,10.439,0,0,0,1.459.529,15.03,15.03,0,0,0,1.99.428,14.364,14.364,0,0,0,2.155.166,7.693,7.693,0,0,0,2.22-.329,6.069,6.069,0,0,0,1.99-1.024,5.249,5.249,0,0,0,1.459-1.781,5.609,5.609,0,0,0,.565-2.6,9.933,9.933,0,0,0-.267-2.307,5.734,5.734,0,0,0-.894-2.011,4.931,4.931,0,0,0-1.624-1.451,4.8,4.8,0,0,0-2.386-.56,4.332,4.332,0,0,0-3.117,1.286,12.085,12.085,0,0,0-2.254,3.032,16.449,16.449,0,0,0-1.394,3.5A11.2,11.2,0,0,0,183.185,139.873Z" transform="translate(-137.298 -99.033)"/><path class="a" d="M315.46,152.595a9.81,9.81,0,0,1,1.79-6,13.073,13.073,0,0,1,4.508-3.845,21.79,21.79,0,0,1,5.868-2.054,34.412,34.412,0,0,1,5.868-.7v-.6a23.152,23.152,0,0,0-.264-3.679,7.169,7.169,0,0,0-.995-2.751,4.562,4.562,0,0,0-1.956-1.692,7.6,7.6,0,0,0-3.15-.565,11.168,11.168,0,0,0-4.873,1.161,18.186,18.186,0,0,0-4.277,2.819l-.264-.264a8.192,8.192,0,0,1,1.557-2.917,13.755,13.755,0,0,1,2.785-2.619,13.992,13.992,0,0,1,3.679-1.857,13.148,13.148,0,0,1,4.244-.7,13.865,13.865,0,0,1,5.637.961,7.733,7.733,0,0,1,3.249,2.586,8.88,8.88,0,0,1,1.459,3.746,28.316,28.316,0,0,1,.332,4.376q0,2.653-.1,5.736t-.1,5.868v.8q0,.995.065,2.254a11.57,11.57,0,0,0,.365,2.386,4.688,4.688,0,0,0,.995,1.922,2.386,2.386,0,0,0,1.889.8,3.358,3.358,0,0,0,1.723-.464,7.589,7.589,0,0,0,.8-.464l.264.2a5.778,5.778,0,0,1-1.523,2.055,8.247,8.247,0,0,1-2.288,1.425,8.816,8.816,0,0,1-3.547.63,9.063,9.063,0,0,1-2.021-.233,5.423,5.423,0,0,1-1.824-.762,4.049,4.049,0,0,1-1.293-1.425,4.516,4.516,0,0,1-.5-2.22l-.267-.132a9.689,9.689,0,0,1-3.482,3.614,10.118,10.118,0,0,1-5.536,1.492,9.445,9.445,0,0,1-3.746-.7,7.92,7.92,0,0,1-2.751-1.922,8.506,8.506,0,0,1-1.725-2.85A9.922,9.922,0,0,1,315.46,152.595Zm7.492-1.259q0,2.984,1.36,4.21a4.483,4.483,0,0,0,3.083,1.228,5.7,5.7,0,0,0,1.889-.365,7.894,7.894,0,0,0,1.922-.995,6.206,6.206,0,0,0,1.492-1.459,2.945,2.945,0,0,0,.6-1.757q0-1.99.1-4.508t.1-5.039q-.995.2-2.785.565a12.744,12.744,0,0,0-3.513,1.293,9.384,9.384,0,0,0-2.984,2.552A6.789,6.789,0,0,0,322.952,151.335Z" transform="translate(-243.581 -99.033)"/><path class="a" d="M459.385,127.224q0-1.593.034-3.282t.1-3.282q.065-1.593.1-2.951t.034-2.288q0-2.119-.1-3.316a5.255,5.255,0,0,0-.433-1.857,1.891,1.891,0,0,0-.927-.928q-.595-.263-1.591-.6v-2.785a5.742,5.742,0,0,0,2.653-.9,21.324,21.324,0,0,0,3.117-2.155,25.307,25.307,0,0,0,2.718-2.586,8.5,8.5,0,0,0,1.523-2.122l1.526.531-1.326,7.228h5.438a8.431,8.431,0,0,0,2.785-.332,3.384,3.384,0,0,0,.8-.332,5.112,5.112,0,0,1,.065.928v.863q0,2.123-.961,2.751a5.014,5.014,0,0,1-2.751.63h-1.194c-.574,0-1.173-.022-1.79-.067q-1.128,0-2.386-.067-.065,2.321-.132,4.575-.068,1.925-.067,4.145v4.145q0,2.455.166,4.674a14.653,14.653,0,0,0,.764,3.878,6.027,6.027,0,0,0,1.723,2.619,4.539,4.539,0,0,0,3.049.961,7.066,7.066,0,0,0,2.453-.464,13.16,13.16,0,0,0,2.254-1.062,27,27,0,0,0,2.321-1.591l.332.264a14.82,14.82,0,0,1-2.122,3.845,11.743,11.743,0,0,1-3.15,2.619,9.709,9.709,0,0,1-5.008,1.161,10.8,10.8,0,0,1-4.84-.961,7.889,7.889,0,0,1-3.083-2.687,11,11,0,0,1-1.624-4.078A26.829,26.829,0,0,1,459.385,127.224Z" transform="translate(-350.806 -77.64)"/><path class="a" d="M742.919,135.549q1.723-2.188,3.282-3.845a10.459,10.459,0,0,1,2.619-2.189v-.332c-.178-.089-.421-.2-.731-.332a6.679,6.679,0,0,0-.995-.233,8.97,8.97,0,0,0-1.459-.1,9.153,9.153,0,0,0-2.088.2,4.063,4.063,0,0,0-1.36.565,3.7,3.7,0,0,0-.928.928,13.747,13.747,0,0,0-.8,1.293q-.93,1.658-2.42,4.244t-3.282,5.438q-1.791-3.248-2.984-5.635a29.01,29.01,0,0,0-2.321-3.946,8.238,8.238,0,0,0-2.42-2.321,6.172,6.172,0,0,0-3.088-.755v-.007h-.127l-.065,0-9.578.074c-.211-.01-.432-.017-.666-.017a6.364,6.364,0,0,0-2.22.3A2.614,2.614,0,0,0,710,130.173a12.147,12.147,0,0,0-.961,2.884q-.433,1.889-1.226,5.073t-2.155,7.858q-1.362,4.675-3.614,11.239-1.128-2.786-2.42-6.365t-2.518-7.194q-1.229-3.612-2.254-6.9t-1.557-5.4a3.083,3.083,0,0,0-1.889-2.155,8.172,8.172,0,0,0-3.215-.63,20.128,20.128,0,0,0-2.85.166q-1.128.166-2.122.365v.332a6.925,6.925,0,0,1,1.526,1.857q.595,1.06,1.127,2.122.862,1.99,2.021,5.14t2.352,6.6q1.193,3.45,2.22,6.764t1.757,5.57a6,6,0,0,0,2.453,3.482,11.182,11.182,0,0,0,3.381,1.492L699,164.92a10.906,10.906,0,0,1-4.044,5.2,10.159,10.159,0,0,1-5.306,1.425,19.582,19.582,0,0,1-2.487-.166,22.775,22.775,0,0,1-2.619-.5q.065,1.525.1,2.751a6.241,6.241,0,0,0,.365,2.088,2.5,2.5,0,0,0,1.192,1.326,5.648,5.648,0,0,0,2.586.464,10.673,10.673,0,0,0,4.078-.829,12.948,12.948,0,0,0,3.878-2.552,21.882,21.882,0,0,0,3.547-4.409,32.118,32.118,0,0,0,3.016-6.464l9.047-25.551c.442-1.238.687-1.992,1.389-3.648a5.94,5.94,0,0,1,.8-1.574c.538-.6,1.961-.718,3.569-.692,2.218-.06,3.338.279,4.114,1.346,1.062,1.459,1.778,2.583,2.795,4.263s1.966,3.347,2.85,5.005,1.634,3.04,2.254,4.145q-.331.53-1.194,1.757t-1.956,2.819q-1.1,1.59-2.386,3.347t-2.521,3.282q-1.226,1.525-2.288,2.653a7.142,7.142,0,0,1-1.723,1.459v.332a8.194,8.194,0,0,0,1.956.464,18.329,18.329,0,0,0,2.22.132,3.41,3.41,0,0,0,2.088-.663,8.391,8.391,0,0,0,1.889-2.189q1-1.525,2.355-3.979t3.482-6.1q2.321,4.113,3.813,6.663a22.867,22.867,0,0,0,2.785,3.946,6.9,6.9,0,0,0,2.684,1.889,10.573,10.573,0,0,0,3.513.5,10.173,10.173,0,0,0,2.453-.332q.728-.133,1.459-.332v-.332a22,22,0,0,1-2.917-3.181q-1.528-1.921-3.78-5.272t-5.306-8.785c-.089-.089-.132-.154-.132-.2q1.258-1.921,2.917-4.311T742.919,135.549Z" transform="translate(-522.97 -100.689)"/><path class="a" d="M982.854,46.332a20.671,20.671,0,0,1-12.25,3.96c-11.063,0-20.033-8.494-20.033-18.974,0-9.222,6.947-16.91,16.157-18.618.529,1.086.783,1.742,1.105,2.535a18.424,18.424,0,0,1,1.387,6.8,15.34,15.34,0,0,1-1.475,6.8,12.545,12.545,0,0,1-3.4,4.472,18.375,18.375,0,0,1-6.529,3.309,21.78,21.78,0,0,0,4.561-4.292,13.557,13.557,0,0,0,3.309-6.8c.158-1.228.387-2.975-.716-4.292A4.579,4.579,0,0,0,962.2,19.8a5.466,5.466,0,0,0-3.22.447,7.437,7.437,0,0,0-3.22,3.487,13.21,13.21,0,0,0-1.521,4.114,14.122,14.122,0,0,0-.089,4.561,15.709,15.709,0,0,0,1.432,4.561,18.58,18.58,0,0,0,4.383,5.635,18.561,18.561,0,0,0,9.479,5.1,20.075,20.075,0,0,0,6.082.358,23.031,23.031,0,0,0,7.187-1.62" transform="translate(-726.077 -12.7)"/><path class="a" d="M1004.7,106.88c-.154.007-.315,0-.471,0a21.713,21.713,0,0,1-4.847-.731c7.372-.776,13.353-5.659,14.593-11.818l-.01,0a18.659,18.659,0,0,0-10.938-3.419c-5.493,0-10.655,3.073-13.731,6.522a16.747,16.747,0,0,1,8.48-4.376c4.46-.687,8.643-.545,9.874,3.326.9,2.816-1.7,5.856-6.954,6.781a23.684,23.684,0,0,1-8.437.065,18.642,18.642,0,0,0,9.958,3.684c.86.012,1.7,0,2.521-.034Z" transform="translate(-755.501 -72.117)"/><path class="a" d="M916.929,53.172a21.8,21.8,0,0,0,1.7,8.259,28.5,28.5,0,0,0,3.689,5.56,35.169,35.169,0,0,0,4.239,3.58,25.436,25.436,0,0,1-1.68-3.816c-.269-.99-.678-3.073-.678-3.073a30.963,30.963,0,0,1-2.5-3.862,28.468,28.468,0,0,1-1.49-3.833,18,18,0,0,1-.622-3.7,18.8,18.8,0,0,0,.209,5.6,31.746,31.746,0,0,0,1.992,5.39,32.549,32.549,0,0,1-3.287-5.027c-.312-.718-.654-1.591-.944-2.489A18.764,18.764,0,0,1,916.929,53.172Z" transform="translate(-700.517 -42.777)"/><g transform="translate(46.812 68.633)"><path class="a" d="M211.176,306.686a4,4,0,0,0,.07-.517c.014-.221.031-.541.05-.956s.029-.983.029-1.7c0-.115,0-.271,0-.469s-.007-.418-.012-.658-.007-.488-.012-.745-.007-.5-.012-.733-.01-.442-.017-.625-.012-.32-.012-.413c-.014-.274-.029-.493-.041-.654a3.368,3.368,0,0,0-.041-.368c-.014-.091-.026-.154-.034-.183h2.107c.435,0,.815,0,1.134-.017s.584-.024.791-.041c.245-.014.447-.034.608-.058-.014.137-.034.264-.058.384a.781.781,0,0,1-.125.3.574.574,0,0,1-.264.195,1.338,1.338,0,0,1-.481.07c-.329,0-.627-.01-.894-.031s-.5-.043-.687-.067c-.221-.031-.42-.065-.6-.1v.495c0,.207,0,.442,0,.7s-.007.536-.012.829,0,.581,0,.875h1.764a1.893,1.893,0,0,0,.517-.058.5.5,0,0,0,.161-.058c-.007.137-.019.257-.034.36a.675.675,0,0,1-.091.264.436.436,0,0,1-.207.166.924.924,0,0,1-.356.058c-.154,0-.332,0-.533,0s-.4-.014-.579-.029c-.214-.007-.433-.019-.654-.034v1.076c0,.32.007.656.024,1s.024.7.024,1.072a.719.719,0,0,1-.224.625.889.889,0,0,1-.521.154,1.745,1.745,0,0,1-.368-.041C211.455,306.734,211.323,306.71,211.176,306.686Z" transform="translate(-211.14 -298.495)"/><path class="a" d="M236.28,302.7a5.091,5.091,0,0,1,.264-1.639,4.131,4.131,0,0,1,.786-1.4,3.845,3.845,0,0,1,1.3-.973,4.173,4.173,0,0,1,1.8-.368,4.419,4.419,0,0,1,1.742.32,3.742,3.742,0,0,1,1.242.841,3.5,3.5,0,0,1,.75,1.2,3.967,3.967,0,0,1,.252,1.4,5.645,5.645,0,0,1-.264,1.713,4.409,4.409,0,0,1-.786,1.473,3.9,3.9,0,0,1-1.3,1.031,3.976,3.976,0,0,1-1.8.389,4.25,4.25,0,0,1-1.742-.332,3.605,3.605,0,0,1-1.242-.887,3.733,3.733,0,0,1-.75-1.278A4.478,4.478,0,0,1,236.28,302.7Zm1.478-.276a5.29,5.29,0,0,0,.171,1.336,3.836,3.836,0,0,0,.509,1.158,2.736,2.736,0,0,0,.836.817,2.152,2.152,0,0,0,1.151.308,1.858,1.858,0,0,0,1.084-.32,2.771,2.771,0,0,0,.786-.839,4,4,0,0,0,.481-1.182,5.779,5.779,0,0,0,.161-1.348,4.636,4.636,0,0,0-.171-1.24,3.559,3.559,0,0,0-.509-1.091,2.661,2.661,0,0,0-.841-.771,2.266,2.266,0,0,0-1.158-.291,1.956,1.956,0,0,0-1.084.3,2.54,2.54,0,0,0-.779.788,3.872,3.872,0,0,0-.476,1.108A4.992,4.992,0,0,0,237.758,302.422Z" transform="translate(-230.239 -298.32)"/><path class="a" d="M279.394,306.983a3.985,3.985,0,0,0,.07-.517c.014-.221.031-.541.051-.956s.029-.983.029-1.7c0-.235,0-.524,0-.865s-.007-.685-.012-1.036-.01-.682-.017-1-.014-.562-.024-.745c-.014-.274-.029-.495-.041-.658a3.383,3.383,0,0,0-.041-.372c-.014-.1-.026-.163-.034-.195.091.007.188.012.286.012s.18.012.286.012h1.764a4.655,4.655,0,0,1,1.3.161,2.846,2.846,0,0,1,.927.442,1.783,1.783,0,0,1,.738,1.461,2.716,2.716,0,0,1-.079.682,2.324,2.324,0,0,1-.211.538,1.968,1.968,0,0,1-.3.406,2.02,2.02,0,0,1-.339.286,2.474,2.474,0,0,1-.928.389v.058c.368.543.728,1.045,1.089,1.511.154.2.31.4.469.6s.32.385.481.562.312.332.459.464a2.061,2.061,0,0,0,.4.3v.079c-.13.031-.257.058-.377.079s-.219.031-.332.046a2.5,2.5,0,0,1-.3.024,1.461,1.461,0,0,1-.836-.257,3.405,3.405,0,0,1-.7-.646,6.463,6.463,0,0,1-.608-.86c-.187-.312-.368-.608-.543-.882s-.344-.517-.5-.721a.985.985,0,0,0-.493-.377l-.161-.046c0,.07,0,.209.012.418s.014.459.017.745.01.6.017.928.012.656.012.968a.719.719,0,0,1-.223.625.889.889,0,0,1-.521.154,1.822,1.822,0,0,1-.372-.041C279.675,307.031,279.538,307.007,279.394,306.983Zm1.466-4.273a1.8,1.8,0,0,0,.5.108c.163.012.327.017.488.017a2.043,2.043,0,0,0,.579-.079,1.166,1.166,0,0,0,.471-.269,1.279,1.279,0,0,0,.315-.488,2.038,2.038,0,0,0,.115-.733,1.973,1.973,0,0,0-.108-.654,1.372,1.372,0,0,0-.348-.538,1.753,1.753,0,0,0-.637-.368,2.982,2.982,0,0,0-.968-.137h-.356c-.007.245-.014.5-.024.779s-.014.553-.017.831,0,.55,0,.812S280.86,302.5,280.86,302.71Z" transform="translate(-262.975 -298.791)"/><path class="a" d="M325.4,302.464c0-.481,0-.942-.017-1.382s-.024-.841-.041-1.209c-.007-.084-.014-.159-.017-.223s0-.127,0-.19c-.368-.007-.634-.012-.8-.012h-.389a7.169,7.169,0,0,0-.791.041c-.238.026-.416.048-.538.062-.007-.046-.014-.1-.024-.149a.965.965,0,0,1-.012-.149v-.161a1.089,1.089,0,0,1,.05-.332.208.208,0,0,1,.211-.161q1.1.022,2.074.034c.274,0,.555,0,.841,0s.56.007.819.012.5,0,.721,0h.55a5.593,5.593,0,0,0,.762-.046c.226-.031.387-.053.488-.07.007.06.014.123.024.183s.014.115.017.183,0,.137,0,.207c0,.252-.072.377-.219.377-.214-.007-.447-.012-.7-.012h-.75c-.279,0-.579,0-.9-.012-.007.466-.017.916-.029,1.353s-.017.88-.017,1.329q0,1.135.024,2.256a20.265,20.265,0,0,0,.173,2.268c-.144.024-.279.048-.4.074a1.744,1.744,0,0,1-.368.041.89.89,0,0,1-.521-.154.716.716,0,0,1-.223-.625v-3.544Z" transform="translate(-295.938 -298.487)"/><path class="a" d="M357.256,306.686a4,4,0,0,0,.07-.517c.014-.221.031-.541.051-.956s.029-.983.029-1.7c0-.115,0-.271,0-.469s-.007-.418-.012-.658-.007-.488-.012-.745-.007-.5-.012-.733-.01-.442-.017-.625-.012-.32-.012-.413c-.014-.274-.029-.493-.041-.654a3.381,3.381,0,0,0-.041-.368c-.014-.091-.027-.156-.034-.195a2.388,2.388,0,0,1,.32-.074,1.906,1.906,0,0,1,.31-.029,1.052,1.052,0,0,1,.646.19.607.607,0,0,1,.257.522v.476c0,.2,0,.43,0,.682s-.007.521-.012.807,0,.572,0,.853c.221.014.5.026.831.034s.67.012,1.014.012c.4,0,.8,0,1.2-.012s.74-.019,1.014-.034c-.007-.413-.014-.8-.024-1.175s-.019-.716-.034-1.036c-.014-.274-.029-.493-.041-.654a3.381,3.381,0,0,0-.041-.368c-.014-.091-.026-.156-.034-.195a2.389,2.389,0,0,1,.32-.074,1.905,1.905,0,0,1,.31-.029,1.052,1.052,0,0,1,.646.19.607.607,0,0,1,.257.522q0,.757-.024,1.466c-.014.473-.024.952-.024,1.432,0,.238,0,.5,0,.791s.007.589.012.894.01.61.017.911.017.582.029.841.024.485.041.675.031.329.046.413c-.077.014-.144.029-.2.041s-.115.024-.171.034-.118.022-.183.029a2.173,2.173,0,0,1-.236.012.62.62,0,0,1-.584-.252,1.387,1.387,0,0,1-.149-.7c0-.435.007-.916.024-1.437s.026-1.06.034-1.61c-.259-.014-.565-.026-.915-.034s-.7-.012-1.055-.012c-.375,0-.75,0-1.129.012s-.7.019-.968.034v1.146c0,.32.007.656.024,1s.024.7.024,1.072a.719.719,0,0,1-.224.625.889.889,0,0,1-.521.154,1.746,1.746,0,0,1-.368-.041Q357.476,306.722,357.256,306.686Z" transform="translate(-322.118 -298.495)"/><path class="a" d="M397.528,306.686c.014-.091.034-.264.058-.517.014-.221.031-.541.046-.956s.024-.983.024-1.7c0-.115,0-.271,0-.469s-.007-.418-.012-.658-.007-.488-.012-.745-.007-.5-.012-.733-.007-.442-.012-.625-.01-.32-.017-.413c-.014-.274-.029-.493-.041-.654a3.363,3.363,0,0,0-.041-.368c-.014-.091-.026-.154-.034-.183h2.107c.435,0,.812,0,1.134-.017s.584-.024.791-.041c.245-.014.447-.034.608-.058-.014.137-.033.264-.058.384a.782.782,0,0,1-.125.3.574.574,0,0,1-.264.195,1.338,1.338,0,0,1-.481.07c-.344,0-.649-.01-.915-.031s-.5-.043-.687-.067c-.221-.031-.413-.065-.572-.1v.478c0,.2,0,.433,0,.685s-.007.524-.012.81,0,.574,0,.858h1.764a1.888,1.888,0,0,0,.517-.058.492.492,0,0,0,.161-.058c-.007.137-.019.257-.034.36a.676.676,0,0,1-.091.264.437.437,0,0,1-.207.166.933.933,0,0,1-.356.058c-.154,0-.332,0-.534,0s-.394-.014-.579-.029c-.214-.007-.432-.019-.654-.034v1.192c0,.312,0,.627.017.94s.022.646.029,1l2.1-.058a4,4,0,0,0,1.536-.252,1.462,1.462,0,0,1,.012.173v.149a1.5,1.5,0,0,1-.051.435.419.419,0,0,1-.178.24.786.786,0,0,1-.339.1,5.187,5.187,0,0,1-.522.024Z" transform="translate(-352.696 -298.495)"/><path class="a" d="M440.954,306.659a4.355,4.355,0,0,0,.079-.517c.024-.221.043-.538.063-.952s.029-.978.029-1.7c0-.115,0-.272,0-.469s-.007-.418-.012-.658-.007-.488-.012-.745-.007-.5-.012-.733-.01-.442-.017-.625-.012-.32-.012-.413c-.014-.274-.029-.493-.041-.654a3.362,3.362,0,0,0-.041-.368c-.014-.091-.026-.154-.034-.183a1.96,1.96,0,0,1,.252-.062,1.847,1.847,0,0,1,.675,0,.418.418,0,0,1,.252.161c.154.228.332.481.538.75s.43.553.675.841l2.223,2.682c.291.358.538.673.745.94a4.3,4.3,0,0,1,.4.584l.046-.046q-.021-.342-.029-.944c0-.4-.007-.827-.012-1.278s-.01-.894-.017-1.329-.019-.8-.034-1.1c-.014-.274-.029-.493-.041-.654a3.324,3.324,0,0,0-.041-.368c-.014-.091-.026-.156-.034-.195.038-.014.079-.031.125-.046a1.092,1.092,0,0,1,.132-.041.716.716,0,0,1,.166-.017c.245,0,.394.058.447.171a1.174,1.174,0,0,1,.079.481c0,.344,0,.69-.012,1.036s-.014.7-.017,1.064-.01.742-.017,1.139-.012.822-.012,1.271c0,.319,0,.637,0,.944s.007.6.012.865.014.5.029.7a2.982,2.982,0,0,0,.058.452.86.86,0,0,1-.161.034,1.891,1.891,0,0,1-.4.034.661.661,0,0,1-.538-.31c-.144-.221-.324-.471-.538-.75s-.454-.579-.721-.9l-2.268-2.715q-.447-.551-.745-.944a2.241,2.241,0,0,1-.344-.555l-.046.046q0,1.352.051,2.658c.034.87.051,1.781.051,2.727,0,.154,0,.281-.012.384a.71.71,0,0,1-.05.24.227.227,0,0,1-.125.12.673.673,0,0,1-.236.034.946.946,0,0,1-.344-.058A.394.394,0,0,1,440.954,306.659Z" transform="translate(-385.72 -298.479)"/><path class="a" d="M479.668,306.686c.014-.091.034-.264.058-.517.014-.221.031-.541.046-.956s.024-.983.024-1.7c0-.115,0-.271,0-.469s-.007-.418-.012-.658-.007-.488-.012-.745-.007-.5-.012-.733-.007-.442-.012-.625-.01-.32-.017-.413c-.014-.274-.029-.493-.041-.654a3.358,3.358,0,0,0-.041-.368c-.014-.091-.026-.154-.034-.183h2.107c.435,0,.812,0,1.134-.017s.584-.024.791-.041c.245-.014.447-.034.608-.058-.014.137-.034.264-.058.384a.782.782,0,0,1-.125.3.574.574,0,0,1-.264.195,1.338,1.338,0,0,1-.481.07c-.344,0-.649-.01-.916-.031s-.5-.043-.687-.067c-.221-.031-.413-.065-.572-.1v.478c0,.2,0,.433,0,.685s-.007.524-.012.81,0,.574,0,.858h1.764a1.887,1.887,0,0,0,.516-.058.493.493,0,0,0,.161-.058c-.007.137-.019.257-.034.36a.676.676,0,0,1-.091.264.436.436,0,0,1-.207.166.932.932,0,0,1-.356.058c-.154,0-.332,0-.534,0s-.394-.014-.579-.029c-.214-.007-.433-.019-.654-.034v1.192c0,.312,0,.627.017.94s.022.646.029,1l2.1-.058a4,4,0,0,0,1.536-.252,1.475,1.475,0,0,1,.012.173v.149a1.5,1.5,0,0,1-.05.435.42.42,0,0,1-.178.24.785.785,0,0,1-.339.1,5.187,5.187,0,0,1-.521.024Z" transform="translate(-415.098 -298.495)"/><path class="a" d="M508.162,305.561c-.115-.358-.257-.8-.423-1.329s-.344-1.065-.526-1.615-.368-1.076-.555-1.581-.353-.913-.5-1.225c-.084-.175-.161-.327-.228-.452s-.125-.231-.173-.315-.1-.173-.149-.24a2.063,2.063,0,0,1,.228-.07c.084-.014.19-.034.32-.05a3.454,3.454,0,0,1,.493-.029,1.035,1.035,0,0,1,.584.19.9.9,0,0,1,.377.555q.126.515.368,1.271c.161.5.336,1.036.526,1.6s.389,1.12.6,1.677.4,1.055.572,1.49h.058c.115-.32.238-.668.372-1.043s.255-.735.36-1.084.2-.666.269-.956a3.038,3.038,0,0,0,.108-.675,2.119,2.119,0,0,0-.041-.384c-.026-.142-.06-.291-.1-.447s-.089-.315-.144-.476-.108-.317-.161-.469q-.195-.537-.435-1.1a.541.541,0,0,1,.149-.07c.06-.014.144-.034.252-.05a2.573,2.573,0,0,1,.435-.029,1.074,1.074,0,0,1,.591.19.844.844,0,0,1,.372.555c.07.344.173.767.315,1.271s.3,1.036.464,1.6.346,1.12.533,1.677.361,1.055.521,1.49h.058q.526-1.568.877-2.682c.233-.74.428-1.362.584-1.862s.284-.9.384-1.2a3.483,3.483,0,0,1,.286-.675.672.672,0,0,1,.3-.3,1.1,1.1,0,0,1,.418-.07.951.951,0,0,1,.228.024,1.073,1.073,0,0,1,.161.046c.046.024.086.041.125.058v.058a1.275,1.275,0,0,0-.274.31,3.438,3.438,0,0,0-.269.452,6.355,6.355,0,0,0-.3.716l-1.982,5.5c-.046.13-.089.262-.132.394s-.079.255-.108.361c-.031.13-.06.252-.091.368a2.15,2.15,0,0,1-1.348-.6,1.6,1.6,0,0,1-.43-.774q-.148-.515-.339-1.2c-.125-.459-.264-.954-.418-1.49h-.058a.535.535,0,0,1-.024.161c-.031.108-.06.219-.091.332l-.882,2.451c-.046.13-.089.262-.132.394s-.079.255-.108.361c-.031.13-.06.252-.091.368a2.086,2.086,0,0,1-.733-.173,1.989,1.989,0,0,1-.591-.406A1.82,1.82,0,0,1,508.162,305.561Z" transform="translate(-434.85 -298.571)"/><path class="a" d="M572.5,302.929a4.993,4.993,0,0,1-.521-.666c-.212-.305-.428-.634-.654-.985s-.442-.694-.654-1.031-.387-.608-.533-.815c-.06-.084-.122-.163-.183-.24a2.646,2.646,0,0,0-.183-.207l-.194-.195v-.058c.07-.014.144-.031.228-.046a2.384,2.384,0,0,1,.274-.034c.106-.007.228-.012.368-.012a2.792,2.792,0,0,1,.471.034.937.937,0,0,1,.3.1.6.6,0,0,1,.19.183q.076.115.166.274c.115.214.25.449.406.7s.319.514.488.774.336.512.5.757.32.459.459.642h.058c.413-.649.74-1.194.985-1.639s.452-.8.625-1.072a2.328,2.328,0,0,1,.48-.584.868.868,0,0,1,.555-.178c.077,0,.154,0,.228.012a1.536,1.536,0,0,1,.207.034c.077.014.144.031.207.046v.058c-.077.06-.156.13-.24.207s-.144.149-.228.24-.168.19-.252.3c-.137.175-.317.423-.538.745s-.447.656-.675,1-.44.673-.63.973-.32.517-.389.646q0,.973.034,1.925t.161,1.925c-.144.024-.279.048-.4.075a1.741,1.741,0,0,1-.368.041.889.889,0,0,1-.521-.154.716.716,0,0,1-.223-.625v-3.158Z" transform="translate(-483.449 -298.563)"/><path class="a" d="M603.43,302.7a5.161,5.161,0,0,1,.264-1.639,4.131,4.131,0,0,1,.786-1.4,3.843,3.843,0,0,1,1.3-.973,4.172,4.172,0,0,1,1.8-.368,4.419,4.419,0,0,1,1.742.32,3.743,3.743,0,0,1,1.242.841,3.5,3.5,0,0,1,.75,1.2,3.966,3.966,0,0,1,.252,1.4,5.642,5.642,0,0,1-.264,1.713,4.407,4.407,0,0,1-.786,1.473,3.9,3.9,0,0,1-1.3,1.031,3.973,3.973,0,0,1-1.8.389,4.249,4.249,0,0,1-1.742-.332,3.606,3.606,0,0,1-1.242-.887,3.733,3.733,0,0,1-.75-1.278A4.491,4.491,0,0,1,603.43,302.7Zm1.478-.276a5.294,5.294,0,0,0,.171,1.336,3.84,3.84,0,0,0,.509,1.158,2.739,2.739,0,0,0,.836.817,2.153,2.153,0,0,0,1.151.308,1.858,1.858,0,0,0,1.084-.32,2.77,2.77,0,0,0,.786-.839,4,4,0,0,0,.481-1.182,5.653,5.653,0,0,0,.161-1.348,4.546,4.546,0,0,0-.173-1.24,3.563,3.563,0,0,0-.509-1.091,2.661,2.661,0,0,0-.841-.771,2.266,2.266,0,0,0-1.158-.291,1.956,1.956,0,0,0-1.084.3,2.541,2.541,0,0,0-.779.788,3.872,3.872,0,0,0-.476,1.108A4.978,4.978,0,0,0,604.908,302.422Z" transform="translate(-509.165 -298.32)"/><path class="a" d="M646.287,303.22q0-1.067-.012-1.81c-.007-.5-.014-.911-.024-1.242s-.019-.594-.034-.786-.026-.336-.034-.435a1.828,1.828,0,0,0-.022-.2.441.441,0,0,1-.012-.074c.077-.014.156-.031.24-.046.06-.014.128-.029.2-.041a1.158,1.158,0,0,1,.187-.017,1.042,1.042,0,0,1,.642.19.614.614,0,0,1,.255.522v.831c0,.356,0,.73,0,1.125s0,.779,0,1.153v.918a3.472,3.472,0,0,0,.569,2.151,2.013,2.013,0,0,0,3.119,0,3.46,3.46,0,0,0,.574-2.151q0-1.272-.017-2.444t-.108-2.191c.07-.014.135-.031.195-.046s.108-.029.166-.041a.75.75,0,0,1,.154-.017c.214,0,.341.063.384.19a1.746,1.746,0,0,1,.062.522c0,.252,0,.55-.017.894s-.022.694-.034,1.055-.022.711-.029,1.055-.012.634-.012.87a4.417,4.417,0,0,1-.75,2.749,2.839,2.839,0,0,1-2.4.973,3.934,3.934,0,0,1-1.3-.207,2.591,2.591,0,0,1-1.019-.646,3.029,3.029,0,0,1-.67-1.134A5,5,0,0,1,646.287,303.22Z" transform="translate(-541.62 -298.51)"/></g></g></svg>