<svg xmlns="http://www.w3.org/2000/svg" width="187.484" height="64.455" viewBox="0 0 187.484 64.455"><defs><style>.a,.b{fill:#828282;}.a{font-size:4px;font-family:SegoeUI, Segoe UI;}</style></defs><g transform="translate(0)"><text class="a" transform="translate(0 63.455)"><tspan x="0" y="0">Revitalization, Restoration &amp; Rejuvenation</tspan></text><g transform="translate(0 0)"><path class="b" d="M130.29,72.47c-2.1,1.143-6.294,2.293-11.663,2.293-12.451,0-21.828-8.6-21.828-24.425,0-15.114,9.376-25.358,23.072-25.358,5.506,0,8.978,1.288,10.483,2.149l-1.375,5.086a19.31,19.31,0,0,0-8.913-2c-10.353,0-17.241,7.235-17.241,19.918,0,11.822,6.229,19.411,16.973,19.411a21.186,21.186,0,0,0,9.3-2Z" transform="translate(-96.8 -15.994)"/><path class="b" d="M154.038,63.056c.13,8.53,5.108,12.032,10.881,12.032A19.4,19.4,0,0,0,173.7,73.3l.984,4.515a23.78,23.78,0,0,1-10.548,2.149c-9.767,0-15.6-7.025-15.6-17.479s5.636-18.695,14.875-18.695c10.353,0,13.11,9.955,13.11,16.336a26.127,26.127,0,0,1-.2,2.937H154.038Zm16.9-4.507c.065-4.008-1.5-10.245-7.995-10.245-5.831,0-8.385,5.875-8.848,10.245Z" transform="translate(-111.107 -21.195)"/><path class="b" d="M224.911,61.631c0,12.82-8.125,18.413-15.794,18.413-8.588,0-15.208-6.88-15.208-17.841,0-11.6,6.945-18.413,15.729-18.413,9.109,0,15.273,7.235,15.273,17.841m-25.17.355c0,7.589,3.994,13.327,9.637,13.327,5.506,0,9.637-5.658,9.637-13.471,0-5.875-2.691-13.327-9.507-13.327s-9.767,6.88-9.767,13.471" transform="translate(-123.652 -21.195)"/><path class="b" d="M246.9,44.877l6.222,19.483c1.049,3.154,1.9,6.019,2.554,8.884h.2c.716-2.865,1.635-5.73,2.684-8.884l6.157-19.483h6.034l-12.451,34.67H252.8L240.74,44.87H246.9Z" transform="translate(-136.601 -21.494)"/><path class="b" d="M341.025,79.248l-.456-4.37h-.2a11.532,11.532,0,0,1-9.7,5.158c-6.424,0-9.7-4.949-9.7-9.955,0-8.385,6.815-12.965,19.071-12.893v-.716c0-2.865-.723-8.023-7.206-8.023a14.9,14.9,0,0,0-8.262,2.576l-1.309-4.153a18.463,18.463,0,0,1,10.418-3.082c9.695,0,12.061,7.235,12.061,14.18V70.935a52.582,52.582,0,0,0,.528,8.306h-5.245Zm-.846-17.689c-6.294-.145-13.435,1.071-13.435,7.806,0,4.08,2.489,6.019,5.441,6.019a7.982,7.982,0,0,0,7.669-5.8,7.162,7.162,0,0,0,.326-2Z" transform="translate(-158.786 -21.195)"/><path class="b" d="M314.1,28.625a.022.022,0,0,1-.007-.014c-9.333,7.64-23.267,16.032-23.759-1.541,0,0-3.661,31.949,18.131,47.895,0,0-17.082-21.82,5.636-46.339" transform="translate(-150.25 -16.572)"/><path class="b" d="M306.309,21.155c0,4.746-2.749,8.6-6.15,8.6s-6.15-3.849-6.15-8.6,2.749-8.6,6.15-8.6,6.15,3.842,6.15,8.6" transform="translate(-151.331 -12.56)"/><path class="b" d="M296.43,25.8s3.675,5.462,8.233,0c0,0-3.856,9.593-8.233,0" transform="translate(-152 -16.221)"/></g></g></svg>