<svg xmlns="http://www.w3.org/2000/svg" xmlns:xlink="http://www.w3.org/1999/xlink" width="272.001" height="77" viewBox="0 0 272.001 77"><defs><style>.a{fill:#6d6e70;}.b{clip-path:url(#a);}.c{clip-path:url(#d);}.d{fill:#6f6f6e;}</style><clipPath id="a"><rect width="272" height="77" transform="translate(-0.316)"/></clipPath><clipPath id="d"><rect width="272" height="77" transform="translate(-0.317)"/></clipPath></defs><g transform="translate(0.316)"><path class="a" d="M19.8,31H44.891v4.97H25.07V47.528H43.514V52.5H25.07V64.954H45.909v4.97H19.8Z" transform="translate(-7.943 -12.436)"/><rect class="a" width="5.27" height="38.864" transform="translate(45.392 18.564)"/><path class="a" d="M101.3,31h5.27V47.827h.479L124.235,31H131.6L112.8,48.965l20.061,20.959h-7.725L107.049,50.462h-.479V69.924H101.3Z" transform="translate(-40.638 -12.436)"/><g transform="translate(0)"><g class="b" transform="translate(0)"><path class="a" d="M177,70.24a21.525,21.525,0,0,1-8.2-1.557,18.331,18.331,0,0,1-6.408-4.312A20.407,20.407,0,0,1,158.2,57.9a22.576,22.576,0,0,1,0-16.168,19.153,19.153,0,0,1,4.192-6.467,18.331,18.331,0,0,1,6.408-4.312,22.393,22.393,0,0,1,16.408,0,18.331,18.331,0,0,1,6.407,4.312,20.407,20.407,0,0,1,4.192,6.467,22.576,22.576,0,0,1,0,16.168,19.153,19.153,0,0,1-4.192,6.467,18.331,18.331,0,0,1-6.407,4.312A20.646,20.646,0,0,1,177,70.24m0-4.91a14.2,14.2,0,0,0,6.048-1.258,14.374,14.374,0,0,0,4.611-3.294,15.667,15.667,0,0,0,2.994-4.91,16.79,16.79,0,0,0,1.018-5.988,17.961,17.961,0,0,0-1.018-5.988,14.635,14.635,0,0,0-2.994-4.91,13.518,13.518,0,0,0-4.611-3.294,15.173,15.173,0,0,0-12.1,0,14.373,14.373,0,0,0-4.611,3.294,15.668,15.668,0,0,0-2.994,4.91,16.791,16.791,0,0,0-1.018,5.988,17.962,17.962,0,0,0,1.018,5.988,14.635,14.635,0,0,0,2.994,4.91,13.518,13.518,0,0,0,4.611,3.294A14.2,14.2,0,0,0,177,65.33" transform="translate(-62.863 -11.794)"/></g><g class="b" transform="translate(0)"><path class="a" d="M237.1,31h6.887l21.438,31.978h.12V31h5.27V69.924h-6.707L242.489,37.946h-.12V69.924H237.1Z" transform="translate(-95.117 -12.436)"/></g><g class="b" transform="translate(0)"><path class="a" d="M391.717,31h-4.791L369.8,69.924h6.168l3.832-9.641,1.856-4.611,7.366-17.845h.12l7.246,17.845,1.916,4.611,3.892,9.641h6.168Z" transform="translate(-148.352 -12.436)"/></g><g class="c" transform="translate(0)"><rect class="a" width="5.27" height="38.864" transform="translate(185.698 18.564)"/></g><g class="c" transform="translate(0)"><rect class="a" width="18.324" height="5.27" transform="translate(193.782 34.732)"/></g><g class="c" transform="translate(0)"><rect class="a" width="5.27" height="38.864" transform="translate(211.148 18.564)"/></g><g class="b" transform="translate(0)"><path class="a" d="M403.226,68.512a3.713,3.713,0,1,1-3.713-3.713,3.656,3.656,0,0,1,3.713,3.713" transform="translate(-158.783 -25.995)"/></g><g class="b" transform="translate(0)"><path class="d" d="M413,28.16a2.684,2.684,0,0,1,.719-.06,1.083,1.083,0,0,1,.838.24.892.892,0,0,1,.24.539.719.719,0,0,1-.539.719h0c.24.06.359.3.419.6a4.069,4.069,0,0,0,.24.778H414.5a2.317,2.317,0,0,1-.18-.719.6.6,0,0,0-.6-.6h-.359v1.377H413Zm.359,1.317h.359c.419,0,.659-.24.659-.539,0-.359-.3-.539-.659-.539-.18,0-.3,0-.359.06Z" transform="translate(-165.683 -11.273)"/></g><g class="b" transform="translate(0)"><path class="a" d="M412.835,26.1a2.635,2.635,0,1,0,2.635,2.635,2.658,2.658,0,0,0-2.635-2.635m0,4.851a2.156,2.156,0,1,1,2.156-2.156,2.186,2.186,0,0,1-2.156,2.156" transform="translate(-164.56 -10.47)"/></g></g></g></svg>