<svg xmlns="http://www.w3.org/2000/svg" width="311.528" height="41.682" viewBox="0 0 311.528 41.682"><defs><style>.a{fill:#828282;}</style></defs><g transform="translate(0)"><g transform="translate(0 0)"><ellipse class="a" cx="5.634" cy="5.634" rx="5.634" ry="5.634" transform="translate(40.263 22.101)"/><path class="a" d="M39.23,40.36h4.232v37.6H59.453v3.994H39.23Z" transform="translate(-39.23 -40.281)"/><path class="a" d="M93.264,40.26h-2.5L71.86,81.934H76.5l6.482-14.192L84.9,63.51l7.124-15.643L99.088,63.51l1.854,4.232,6.545,14.192h4.461Z" transform="translate(-46.003 -40.26)"/><path class="a" d="M130.56,40.36h8.289q7.358,0,9.62.578a11.426,11.426,0,0,1,4.144,2.029,9.96,9.96,0,0,1,2.924,3.621,11.011,11.011,0,0,1,1.046,4.842,10.442,10.442,0,0,1-2.322,7.013,10.146,10.146,0,0,1-5.824,3.447,57.973,57.973,0,0,1-10.745.721h-2.956V81.963h-4.168V40.36Zm4.176,4.049V58.6h7.013q6.312.119,8.4-2.06a7.169,7.169,0,0,0,2.084-5.127q0-7.013-10.143-7.013h-7.354Z" transform="translate(-58.187 -40.281)"/><path class="a" d="M174.14,40.36h8.281a48.506,48.506,0,0,1,9.5.61,11.506,11.506,0,0,1,4.374,2,9.585,9.585,0,0,1,2.869,3.59,11.19,11.19,0,0,1,1.046,4.866,10.156,10.156,0,0,1-3.764,8.368q-3.768,3.043-10.658,2.813L200.8,81.955h-5.159L180.685,62.6h-2.377V81.955H174.14Zm4.168,4.049V58.546H185.5q5.325.059,7.853-1.648a6.085,6.085,0,0,0,2.52-5.42q0-3.709-2.5-5.389t-7.7-1.68h-7.362Z" transform="translate(-67.233 -40.281)"/><path class="a" d="M279.42,81.955l5.911-41.595h.634l16.918,34.122,16.8-34.122h.634l5.967,41.595h-4.113l-4.057-29.78L303.4,81.955h-1.046l-14.89-30.009-4.057,30.009Z" transform="translate(-89.086 -40.281)"/><path class="a" d="M349.02,40.36h23.868v4.113h-19.7v12.98h19.525V61.51H353.188V77.85h19.525v4.113H349.02Z" transform="translate(-103.533 -40.281)"/><path class="a" d="M388.13,81.955V40.36h8.63q8.867,0,13,1.3a18.586,18.586,0,0,1,7.156,4.113,18.848,18.848,0,0,1,4.636,6.862,25.477,25.477,0,0,1,1.625,9.47,21.546,21.546,0,0,1-2.52,10.2,17.258,17.258,0,0,1-6.839,7.211q-4.315,2.437-12.425,2.433H388.13Zm4-3.938h4.81a56.141,56.141,0,0,0,10.92-.753,13.215,13.215,0,0,0,5.935-2.98,14.569,14.569,0,0,0,3.883-5.42,20.062,20.062,0,0,0-.206-14.89,14.883,14.883,0,0,0-4.374-5.737,15.551,15.551,0,0,0-6.688-3.043,61.011,61.011,0,0,0-11.324-.785h-2.956Z" transform="translate(-111.651 -40.281)"/><g transform="translate(141.076 0.087)"><path class="a" d="M226.29,63.083A14.147,14.147,0,0,1,228.1,56.03a13.262,13.262,0,0,1,4.961-5.072,13.433,13.433,0,0,1,6.862-1.838,13.8,13.8,0,0,1,6.918,1.815,13.12,13.12,0,0,1,5.032,5.032,14.282,14.282,0,0,1,.016,13.963,13.2,13.2,0,0,1-4.984,5.048,13.462,13.462,0,0,1-6.886,1.838,13.676,13.676,0,0,1-6.9-1.815,13.257,13.257,0,0,1-5.016-5.016A13.778,13.778,0,0,1,226.29,63.083ZM251,62.972a10.913,10.913,0,0,0-3.241-8,10.6,10.6,0,0,0-7.805-3.273,10.324,10.324,0,0,0-7.805,3.289,11.158,11.158,0,0,0-3.13,8,10.951,10.951,0,0,0,3.225,7.988,10.982,10.982,0,0,0,15.563.079A10.983,10.983,0,0,0,251,62.972Z" transform="translate(-219.134 -42.186)"/><path class="a" d="M217.26,61.322a21.066,21.066,0,0,1,2.758-10.587,20.064,20.064,0,0,1,7.552-7.607,20.606,20.606,0,0,1,10.444-2.758A21.293,21.293,0,0,1,248.545,43.1a19.932,19.932,0,0,1,7.663,7.552,21.2,21.2,0,0,1,.024,20.952,20.027,20.027,0,0,1-7.584,7.584,20.742,20.742,0,0,1-10.476,2.758,21.088,21.088,0,0,1-10.5-2.726,20.085,20.085,0,0,1-7.639-7.528A20.359,20.359,0,0,1,217.26,61.322Zm37.6-.166a16.8,16.8,0,0,0-16.815-16.926,15.851,15.851,0,0,0-11.879,4.937,16.661,16.661,0,0,0-4.77,12.021A16.3,16.3,0,0,0,226.3,73.177a16.669,16.669,0,0,0,28.559-12.021Z" transform="translate(-217.26 -40.37)"/><path class="a" d="M222.08,62.289a17.225,17.225,0,0,1,2.251-8.645,16.31,16.31,0,0,1,6.173-6.213,16.882,16.882,0,0,1,8.534-2.25,17.416,17.416,0,0,1,8.606,2.227,16.269,16.269,0,0,1,6.26,6.173,17.318,17.318,0,0,1,.024,17.116,16.31,16.31,0,0,1-6.2,6.189,16.91,16.91,0,0,1-8.558,2.251,17.284,17.284,0,0,1-8.582-2.227,16.366,16.366,0,0,1-6.236-6.149A16.621,16.621,0,0,1,222.08,62.289Zm30.715-.135a13.731,13.731,0,0,0-13.741-13.828,12.956,12.956,0,0,0-9.707,4.033,13.585,13.585,0,0,0-3.891,9.818,13.326,13.326,0,0,0,4.01,9.794,13.613,13.613,0,0,0,23.329-9.818Z" transform="translate(-218.26 -41.368)"/><path class="a" d="M229.31,63.741a11.427,11.427,0,0,1,1.5-5.745,10.9,10.9,0,0,1,4.1-4.129,11.158,11.158,0,0,1,5.666-1.5,11.485,11.485,0,0,1,5.713,1.482,10.82,10.82,0,0,1,4.16,4.1,11.474,11.474,0,0,1,.016,11.363,10.9,10.9,0,0,1-4.113,4.113,11.237,11.237,0,0,1-5.682,1.5,11.383,11.383,0,0,1-5.7-1.482,11.107,11.107,0,0,1-5.658-9.7Zm20.4-.1a9.118,9.118,0,0,0-9.121-9.184,8.586,8.586,0,0,0-6.442,2.678,9.023,9.023,0,0,0-2.583,6.522,8.854,8.854,0,0,0,2.663,6.506,9.165,9.165,0,0,0,12.853.063A8.885,8.885,0,0,0,249.707,63.646Z" transform="translate(-219.761 -42.861)"/><path class="a" d="M231.67,64.213a9.551,9.551,0,0,1,1.244-4.794,9.052,9.052,0,0,1,3.423-3.447,9.346,9.346,0,0,1,4.731-1.252,9.623,9.623,0,0,1,4.77,1.236,9,9,0,0,1,3.471,3.423,9.624,9.624,0,0,1,.016,9.493,9.032,9.032,0,0,1-3.431,3.431,9.4,9.4,0,0,1-4.747,1.252,9.543,9.543,0,0,1-4.755-1.236,9.032,9.032,0,0,1-3.455-3.407A9.174,9.174,0,0,1,231.67,64.213Zm17.021-.079a7.6,7.6,0,0,0-7.615-7.663,7.181,7.181,0,0,0-5.381,2.235,7.528,7.528,0,0,0-2.155,5.444,7.577,7.577,0,1,0,15.151-.016Z" transform="translate(-220.251 -43.349)"/></g></g></g></svg>