<svg xmlns="http://www.w3.org/2000/svg" width="166.476" height="55.694" viewBox="0 0 166.476 55.694"><defs><style>.a{fill:#828282;}</style></defs><g transform="translate(0.504 45.513)"><path class="a" d="M89.132,106.426a2.248,2.248,0,0,1-1.119-.272,2.581,2.581,0,0,1-.826-.72,3.352,3.352,0,0,1-.51-1.025,4.071,4.071,0,0,1-.177-1.186,4.15,4.15,0,0,1,.327-1.574,4.89,4.89,0,0,1,2.272-2.5,3.718,3.718,0,0,1,1.729-.41,2.44,2.44,0,0,1,1.552.46,2.126,2.126,0,0,1,.765,1.2l-.671.366a1.951,1.951,0,0,0-.283-.632,1.538,1.538,0,0,0-.432-.416,1.734,1.734,0,0,0-.532-.227,2.564,2.564,0,0,0-.576-.072,2.785,2.785,0,0,0-1.374.349,3.734,3.734,0,0,0-1.075.9,4.257,4.257,0,0,0-.7,1.225,3.769,3.769,0,0,0-.249,1.313,3.369,3.369,0,0,0,.144.986,2.56,2.56,0,0,0,.41.815,1.91,1.91,0,0,0,.654.554,1.843,1.843,0,0,0,.864.205,2.979,2.979,0,0,0,.637-.078,2.879,2.879,0,0,0,.665-.255,3.57,3.57,0,0,0,.643-.438,2.832,2.832,0,0,0,.554-.637l.554.321a3.243,3.243,0,0,1-.648.754,4.286,4.286,0,0,1-1.712.892A4.285,4.285,0,0,1,89.132,106.426Z" transform="translate(-86.5 -98.568)"/><path class="a" d="M99.612,106.288a.874.874,0,0,1-.621-.205.732.732,0,0,1-.222-.576,1.264,1.264,0,0,1,.011-.139.924.924,0,0,1,.033-.161l1.43-6.777h.726l-1.385,6.534c-.006.033-.011.066-.017.094a.509.509,0,0,0-.006.094c0,.316.166.471.5.471a1.382,1.382,0,0,0,.277-.033,2.836,2.836,0,0,0,.31-.083l-.022.587a2.633,2.633,0,0,1-.5.139A2.775,2.775,0,0,1,99.612,106.288Z" transform="translate(-91.97 -98.43)"/><path class="a" d="M105.789,108.049a1.977,1.977,0,0,1-.881-.188,1.9,1.9,0,0,1-.654-.5,2.222,2.222,0,0,1-.41-.737,2.831,2.831,0,0,1-.144-.9,3.139,3.139,0,0,1,.272-1.291,3.773,3.773,0,0,1,.731-1.092,3.719,3.719,0,0,1,1.058-.765,2.845,2.845,0,0,1,1.258-.288,1.95,1.95,0,0,1,1.529.693,2.165,2.165,0,0,1,.416.743,2.865,2.865,0,0,1,.144.909,3.107,3.107,0,0,1-.272,1.28,3.684,3.684,0,0,1-.726,1.092,3.644,3.644,0,0,1-1.058.765A2.928,2.928,0,0,1,105.789,108.049Zm.139-.643a1.99,1.99,0,0,0,.887-.216,2.684,2.684,0,0,0,.781-.587,3.1,3.1,0,0,0,.554-.853,2.491,2.491,0,0,0,.216-1.031,2.254,2.254,0,0,0-.105-.7,1.707,1.707,0,0,0-.3-.571,1.4,1.4,0,0,0-.471-.377,1.292,1.292,0,0,0-.6-.139,1.889,1.889,0,0,0-.881.222,2.754,2.754,0,0,0-.781.593,3.053,3.053,0,0,0-.56.864,2.535,2.535,0,0,0-.216,1.036,2.2,2.2,0,0,0,.105.7,1.733,1.733,0,0,0,.3.565,1.387,1.387,0,0,0,.471.371A1.457,1.457,0,0,0,105.928,107.406Z" transform="translate(-94.168 -100.146)"/><path class="a" d="M115.94,108.049a3.146,3.146,0,0,1-1.164-.216,2.193,2.193,0,0,1-.887-.621l.427-.493a2.286,2.286,0,0,0,1.729.77,1.947,1.947,0,0,0,1.158-.327,1.01,1.01,0,0,0,.454-.87.59.59,0,0,0-.083-.321.735.735,0,0,0-.255-.227,2.626,2.626,0,0,0-.427-.188c-.172-.055-.366-.116-.587-.172-.255-.072-.477-.139-.665-.211a2.2,2.2,0,0,1-.471-.227.922.922,0,0,1-.283-.3.845.845,0,0,1-.094-.421,1.664,1.664,0,0,1,.2-.82,1.928,1.928,0,0,1,.521-.615,2.267,2.267,0,0,1,.759-.377,3.234,3.234,0,0,1,.9-.127,2.5,2.5,0,0,1,1.058.211,1.7,1.7,0,0,1,.693.549l-.449.427a1.374,1.374,0,0,0-.615-.482,2.206,2.206,0,0,0-.837-.161,2.451,2.451,0,0,0-.576.072,1.51,1.51,0,0,0-.488.222,1.124,1.124,0,0,0-.333.371,1.078,1.078,0,0,0-.122.532.51.51,0,0,0,.272.488,4.366,4.366,0,0,0,.848.294,4.992,4.992,0,0,1,1.319.488.9.9,0,0,1,.454.826,1.661,1.661,0,0,1-.183.77,1.893,1.893,0,0,1-.5.61,2.362,2.362,0,0,1-.781.4A3.049,3.049,0,0,1,115.94,108.049Z" transform="translate(-98.712 -100.146)"/><path class="a" d="M125.145,106.569a1.055,1.055,0,0,1-.665-.2.716.716,0,0,1-.26-.6,1.24,1.24,0,0,1,.033-.266l.842-3.984h-.737l.127-.576h.72l.4-1.879h.726l-.4,1.879h1.219l-.127.576h-1.208l-.77,3.619c-.017.078-.028.139-.039.183a.49.49,0,0,0-.017.116.405.405,0,0,0,.15.355.6.6,0,0,0,.36.105,1.378,1.378,0,0,0,.532-.1,3.164,3.164,0,0,0,.321-.144l.066.587a2.266,2.266,0,0,1-.5.216A2.452,2.452,0,0,1,125.145,106.569Z" transform="translate(-103.317 -98.711)"/><path class="a" d="M130.819,102.456h.687l-.288,1.336a3.639,3.639,0,0,1,.942-.964,2.021,2.021,0,0,1,1.075-.377,1.118,1.118,0,0,1,.144.006l.111.017-.139.632a2.53,2.53,0,0,0-1.291.4,2.772,2.772,0,0,0-.959,1.058l-.726,3.458h-.726Z" transform="translate(-105.738 -100.222)"/><path class="a" d="M137.425,100.663h.726l-1.175,5.564h-.726Zm.482-2.233h.726l-.222,1.07h-.726Z" transform="translate(-108.68 -98.43)"/><path class="a" d="M142.654,106.332a1.773,1.773,0,0,1-.837-.188,1.908,1.908,0,0,1-.626-.5,2.258,2.258,0,0,1-.388-.743,2.945,2.945,0,0,1-.133-.892,3.279,3.279,0,0,1,.255-1.28,3.894,3.894,0,0,1,.682-1.1,3.4,3.4,0,0,1,.986-.77,2.5,2.5,0,0,1,1.169-.288,1.64,1.64,0,0,1,1.1.366,2,2,0,0,1,.621.892l.726-3.4h.726l-1.452,6.844a.818.818,0,0,0-.022.127c0,.122.066.183.205.183l-.139.643c-.055.006-.105.011-.144.017a.78.78,0,0,1-.111.006.544.544,0,0,1-.388-.122.4.4,0,0,1-.133-.3,1.223,1.223,0,0,1,.022-.211c.017-.089.044-.244.094-.465a3.232,3.232,0,0,1-1.031.865A2.559,2.559,0,0,1,142.654,106.332Zm.3-.643a1.653,1.653,0,0,0,.56-.105,2.683,2.683,0,0,0,.593-.294,2.45,2.45,0,0,0,.515-.438,1.651,1.651,0,0,0,.338-.538l.355-1.718a1.393,1.393,0,0,0-.172-.538,1.794,1.794,0,0,0-.344-.443,1.5,1.5,0,0,0-.46-.3,1.326,1.326,0,0,0-.521-.105,1.883,1.883,0,0,0-.92.238,2.674,2.674,0,0,0-.765.621,3.056,3.056,0,0,0-.515.859,2.6,2.6,0,0,0-.194.959,2.194,2.194,0,0,0,.105.7,1.673,1.673,0,0,0,.31.571,1.422,1.422,0,0,0,.482.388A1.361,1.361,0,0,0,142.953,105.69Z" transform="translate(-110.651 -98.43)"/><path class="a" d="M153.045,100.663h.726l-1.175,5.564h-.726Zm.482-2.233h.726l-.222,1.07h-.726Z" transform="translate(-115.644 -98.43)"/><path class="a" d="M157.822,108.129c-.87,0-1.3-.477-1.3-1.43a4.439,4.439,0,0,1,.028-.454,5.031,5.031,0,0,1,.089-.515l.7-3.264h.715L157.4,105.6a3.78,3.78,0,0,0-.105.831c0,.7.3,1.058.92,1.058a1.833,1.833,0,0,0,.61-.105,2.372,2.372,0,0,0,.6-.31,3.14,3.14,0,0,0,.543-.482,2.948,2.948,0,0,0,.449-.632l.748-3.5h.726l-.97,4.539a.858.858,0,0,0-.033.205c0,.122.066.183.205.183l-.139.643c-.055.006-.105.011-.144.017a.779.779,0,0,1-.111.006.55.55,0,0,1-.371-.111.389.389,0,0,1-.127-.3.48.48,0,0,1,.006-.083c.006-.033.011-.083.022-.15s.022-.144.044-.244.044-.227.078-.382a3.553,3.553,0,0,1-1.153,1.009A3.107,3.107,0,0,1,157.822,108.129Z" transform="translate(-117.717 -100.227)"/><path class="a" d="M168.115,102.38h.671l-.277,1.258a3.5,3.5,0,0,1,1.053-.992,2.36,2.36,0,0,1,1.23-.366,1.169,1.169,0,0,1,.953.377,1.636,1.636,0,0,1,.316,1.075,3.439,3.439,0,0,1,1.086-1.086,2.42,2.42,0,0,1,1.252-.366,1.13,1.13,0,0,1,.953.366,1.6,1.6,0,0,1,.283,1,4.97,4.97,0,0,1-.127,1.036l-.693,3.258h-.726l.654-3.109c.033-.166.061-.316.078-.465a3.537,3.537,0,0,0,.028-.4c0-.682-.283-1.025-.842-1.025a1.591,1.591,0,0,0-.593.116,2.162,2.162,0,0,0-.56.333,3.111,3.111,0,0,0-.5.51,3.18,3.18,0,0,0-.4.648l-.715,3.4h-.726l.654-3.109c.033-.177.066-.338.083-.488a2.636,2.636,0,0,0,.033-.4c0-.671-.283-1-.842-1a1.831,1.831,0,0,0-1.153.438,3.338,3.338,0,0,0-.909,1.153l-.715,3.408h-.726Z" transform="translate(-122.363 -100.146)"/><path class="a" d="M190.539,98.82h3.48a1.13,1.13,0,0,1,.56.133,1.213,1.213,0,0,1,.4.349,1.457,1.457,0,0,1,.238.493,1.983,1.983,0,0,1,.078.576,2.087,2.087,0,0,1-.105.665,2.491,2.491,0,0,1-.3.61,2.23,2.23,0,0,1-.465.5,2.517,2.517,0,0,1-.593.366,1.3,1.3,0,0,1,.731.576,1.832,1.832,0,0,1,.249.959,2.066,2.066,0,0,1-.216.942,2.546,2.546,0,0,1-.56.743,2.678,2.678,0,0,1-.8.493,2.549,2.549,0,0,1-.931.177h-3.4Zm1.917,6.927a1.382,1.382,0,0,0,.6-.144,1.734,1.734,0,0,0,.515-.382,1.972,1.972,0,0,0,.36-.543,1.5,1.5,0,0,0,.139-.637,1.517,1.517,0,0,0-.066-.449,1.118,1.118,0,0,0-.188-.371.905.905,0,0,0-.294-.249.824.824,0,0,0-.393-.089H190.4l-.61,2.871h2.666Zm.538-3.48a1.251,1.251,0,0,0,.576-.144,1.8,1.8,0,0,0,.493-.377,1.934,1.934,0,0,0,.344-.538,1.677,1.677,0,0,0,.127-.637,1.3,1.3,0,0,0-.233-.781.751.751,0,0,0-.648-.321h-2.51l-.6,2.8Z" transform="translate(-132.158 -98.604)"/><path class="a" d="M203.379,108.049a1.977,1.977,0,0,1-.881-.188,1.9,1.9,0,0,1-.654-.5,2.22,2.22,0,0,1-.41-.737,2.83,2.83,0,0,1-.144-.9,3.139,3.139,0,0,1,.272-1.291,3.773,3.773,0,0,1,.731-1.092,3.72,3.72,0,0,1,1.058-.765,2.845,2.845,0,0,1,1.258-.288,1.95,1.95,0,0,1,1.53.693,2.166,2.166,0,0,1,.416.743,2.865,2.865,0,0,1,.144.909,3.107,3.107,0,0,1-.272,1.28A3.685,3.685,0,0,1,205.7,107a3.643,3.643,0,0,1-1.058.765A2.928,2.928,0,0,1,203.379,108.049Zm.139-.643a1.99,1.99,0,0,0,.887-.216,2.759,2.759,0,0,0,.781-.587,3.1,3.1,0,0,0,.554-.853,2.491,2.491,0,0,0,.216-1.031,2.255,2.255,0,0,0-.105-.7,1.707,1.707,0,0,0-.3-.571,1.4,1.4,0,0,0-.471-.377,1.292,1.292,0,0,0-.6-.139,1.888,1.888,0,0,0-.881.222,2.754,2.754,0,0,0-.781.593,3.054,3.054,0,0,0-.56.864,2.535,2.535,0,0,0-.216,1.036,2.194,2.194,0,0,0,.105.7,1.733,1.733,0,0,0,.3.565,1.387,1.387,0,0,0,.471.371A1.438,1.438,0,0,0,203.518,107.406Z" transform="translate(-137.678 -100.146)"/><path class="a" d="M213.565,106.569a1.055,1.055,0,0,1-.665-.2.716.716,0,0,1-.26-.6,1.241,1.241,0,0,1,.033-.266l.842-3.984h-.737l.127-.576h.726l.4-1.879h.726l-.4,1.879h1.219l-.127.576h-1.208l-.77,3.619c-.017.078-.028.139-.039.183a.489.489,0,0,0-.017.116.405.405,0,0,0,.15.355.6.6,0,0,0,.36.105,1.378,1.378,0,0,0,.532-.1,3.159,3.159,0,0,0,.321-.144l.066.587a2.266,2.266,0,0,1-.5.216A2.511,2.511,0,0,1,213.565,106.569Z" transform="translate(-142.738 -98.711)"/><path class="a" d="M219.9,108.129c-.87,0-1.3-.477-1.3-1.43a4.43,4.43,0,0,1,.028-.454,5.047,5.047,0,0,1,.089-.515l.7-3.264h.715l-.659,3.137a3.78,3.78,0,0,0-.105.831c0,.7.3,1.058.92,1.058a1.834,1.834,0,0,0,.61-.105,2.374,2.374,0,0,0,.6-.31,3.14,3.14,0,0,0,.543-.482,2.945,2.945,0,0,0,.449-.632l.748-3.5h.726l-.97,4.539a.859.859,0,0,0-.033.205c0,.122.066.183.205.183l-.139.643c-.055.006-.105.011-.144.017a.779.779,0,0,1-.111.006.55.55,0,0,1-.371-.111.389.389,0,0,1-.127-.3.478.478,0,0,1,.006-.083c.006-.033.011-.083.022-.15s.022-.144.044-.244.044-.227.078-.382a3.553,3.553,0,0,1-1.153,1.009A3.089,3.089,0,0,1,219.9,108.129Z" transform="translate(-145.395 -100.227)"/><path class="a" d="M230.232,106.288a.874.874,0,0,1-.621-.205.732.732,0,0,1-.222-.576,1.259,1.259,0,0,1,.011-.139.919.919,0,0,1,.033-.161l1.43-6.777h.726l-1.385,6.534c-.006.033-.011.066-.017.094a.5.5,0,0,0-.006.094c0,.316.166.471.5.471a1.382,1.382,0,0,0,.277-.033,2.837,2.837,0,0,0,.31-.083l-.022.587a2.632,2.632,0,0,1-.5.139A2.774,2.774,0,0,1,230.232,106.288Z" transform="translate(-150.206 -98.43)"/><path class="a" d="M235.285,100.663h.726l-1.175,5.564h-.726Zm.477-2.233h.726l-.222,1.07h-.726Z" transform="translate(-152.31 -98.43)"/><path class="a" d="M239.38,102.384h.671l-.277,1.258a3.438,3.438,0,0,1,.515-.549,3.9,3.9,0,0,1,.621-.432,2.851,2.851,0,0,1,.676-.277,2.561,2.561,0,0,1,.7-.094,1.116,1.116,0,0,1,.931.355,1.541,1.541,0,0,1,.277.97,3.14,3.14,0,0,1-.039.5c-.028.172-.061.366-.1.571l-.682,3.258h-.726l.659-3.109a4.576,4.576,0,0,0,.105-.909q0-.981-.831-.981a1.858,1.858,0,0,0-.626.116,2.666,2.666,0,0,0-.632.332,3.026,3.026,0,0,0-.56.51,2.847,2.847,0,0,0-.427.637l-.715,3.408H238.2Z" transform="translate(-154.134 -100.151)"/><path class="a" d="M250.822,108.129c-.87,0-1.3-.477-1.3-1.43a4.43,4.43,0,0,1,.028-.454,5.039,5.039,0,0,1,.089-.515l.7-3.264h.715L250.4,105.6a3.779,3.779,0,0,0-.105.831c0,.7.3,1.058.92,1.058a1.833,1.833,0,0,0,.61-.105,2.373,2.373,0,0,0,.6-.31,3.138,3.138,0,0,0,.543-.482,2.946,2.946,0,0,0,.449-.632l.748-3.5h.726l-.97,4.539a.856.856,0,0,0-.033.205c0,.122.066.183.2.183l-.139.643c-.055.006-.105.011-.144.017a.779.779,0,0,1-.111.006.55.55,0,0,1-.371-.111.389.389,0,0,1-.127-.3.478.478,0,0,1,.006-.083c.006-.033.011-.083.022-.15s.022-.144.044-.244.044-.227.078-.382a3.553,3.553,0,0,1-1.153,1.009A3.107,3.107,0,0,1,250.822,108.129Z" transform="translate(-159.18 -100.227)"/><path class="a" d="M261.11,102.38h.671l-.277,1.258a3.5,3.5,0,0,1,1.053-.992,2.36,2.36,0,0,1,1.23-.366,1.169,1.169,0,0,1,.953.377,1.636,1.636,0,0,1,.316,1.075,3.5,3.5,0,0,1,1.086-1.086,2.42,2.42,0,0,1,1.252-.366,1.13,1.13,0,0,1,.953.366,1.6,1.6,0,0,1,.283,1,4.976,4.976,0,0,1-.127,1.036l-.693,3.258h-.726l.654-3.109c.033-.166.061-.316.078-.465a3.538,3.538,0,0,0,.028-.4c0-.682-.283-1.025-.842-1.025a1.591,1.591,0,0,0-.593.116,2.163,2.163,0,0,0-.56.333,3.112,3.112,0,0,0-.5.51,3.178,3.178,0,0,0-.4.648l-.715,3.4h-.726l.648-3.109c.033-.177.066-.338.083-.488a2.643,2.643,0,0,0,.033-.4c0-.671-.283-1-.842-1a1.832,1.832,0,0,0-1.153.438,3.337,3.337,0,0,0-.909,1.153l-.715,3.408h-.726Z" transform="translate(-163.822 -100.146)"/><path class="a" d="M285.2,99.479H282.66l.139-.659h5.841l-.139.659h-2.549l-1.474,6.916h-.737Z" transform="translate(-173.955 -98.604)"/><path class="a" d="M292.569,108.049a1.978,1.978,0,0,1-.881-.188,1.9,1.9,0,0,1-.654-.5,2.222,2.222,0,0,1-.41-.737,2.831,2.831,0,0,1-.144-.9,3.139,3.139,0,0,1,.272-1.291,3.773,3.773,0,0,1,.732-1.092,3.72,3.72,0,0,1,1.058-.765,2.845,2.845,0,0,1,1.258-.288,1.95,1.95,0,0,1,1.529.693,2.166,2.166,0,0,1,.416.743,2.865,2.865,0,0,1,.144.909,3.108,3.108,0,0,1-.271,1.28,3.684,3.684,0,0,1-.726,1.092,3.642,3.642,0,0,1-1.058.765A2.946,2.946,0,0,1,292.569,108.049Zm.139-.643a1.99,1.99,0,0,0,.887-.216,2.76,2.76,0,0,0,.781-.587,3.105,3.105,0,0,0,.554-.853,2.491,2.491,0,0,0,.216-1.031,2.255,2.255,0,0,0-.105-.7,1.707,1.707,0,0,0-.3-.571,1.4,1.4,0,0,0-.471-.377,1.292,1.292,0,0,0-.6-.139,1.888,1.888,0,0,0-.881.222,2.754,2.754,0,0,0-.781.593,3.053,3.053,0,0,0-.56.864,2.535,2.535,0,0,0-.216,1.036,2.2,2.2,0,0,0,.105.7,1.734,1.734,0,0,0,.3.565,1.387,1.387,0,0,0,.471.371A1.437,1.437,0,0,0,292.708,107.406Z" transform="translate(-177.442 -100.146)"/><path class="a" d="M302.285,105.259l-1.419-2.8h.781l1.086,2.178.044.161.116-.15,2.028-2.189h.781l-2.6,2.8,1.419,2.765h-.781l-1.086-2.167-.066-.15-.105.139-2.006,2.178h-.792Z" transform="translate(-181.544 -100.227)"/><path class="a" d="M311.255,100.663h.726l-1.175,5.564h-.726Zm.482-2.233h.726l-.222,1.07h-.726Z" transform="translate(-186.18 -98.43)"/><path class="a" d="M315.35,102.384h.67l-.277,1.258a3.434,3.434,0,0,1,.515-.549,3.9,3.9,0,0,1,.621-.432,2.851,2.851,0,0,1,.676-.277,2.562,2.562,0,0,1,.7-.094,1.116,1.116,0,0,1,.931.355,1.541,1.541,0,0,1,.277.97,3.136,3.136,0,0,1-.039.5c-.028.172-.061.366-.1.571l-.682,3.258h-.726l.659-3.109a4.576,4.576,0,0,0,.105-.909q0-.981-.831-.981a1.858,1.858,0,0,0-.626.116,2.668,2.668,0,0,0-.632.332,3.025,3.025,0,0,0-.56.51,2.847,2.847,0,0,0-.427.637l-.715,3.408h-.726Z" transform="translate(-188.004 -100.151)"/><path class="a" d="M333.278,99.479H330.74l.139-.659h5.841l-.139.659h-2.549l-1.474,6.916h-.737Z" transform="translate(-195.391 -98.604)"/><path class="a" d="M338.03,109.82a3.845,3.845,0,0,0,.571-.127,1.346,1.346,0,0,0,.427-.216,2.063,2.063,0,0,0,.355-.344,5.43,5.43,0,0,0,.366-.51l.355-.521-1.142-5.647h.759l.9,4.888.438-.715q.457-.748.781-1.313c.216-.377.4-.726.549-1.042a8.029,8.029,0,0,0,.382-.909q.158-.432.283-.914h.715c-.1.344-.205.659-.31.953a9.71,9.71,0,0,1-.4.942c-.161.332-.36.7-.6,1.108s-.538.9-.892,1.457l-.865,1.374c-.249.393-.477.72-.676.981a4.582,4.582,0,0,1-.6.643,2.027,2.027,0,0,1-.6.36,2.607,2.607,0,0,1-.693.133Z" transform="translate(-198.641 -100.222)"/><path class="a" d="M349.127,102.384h.643l-.222,1.081a3.4,3.4,0,0,1,1.014-.848,2.465,2.465,0,0,1,1.2-.327,1.762,1.762,0,0,1,.826.194,2,2,0,0,1,.626.51,2.232,2.232,0,0,1,.388.748,2.964,2.964,0,0,1,.133.887,3.464,3.464,0,0,1-.244,1.269,3.738,3.738,0,0,1-.67,1.1,3.4,3.4,0,0,1-.986.77,2.511,2.511,0,0,1-1.18.288,1.642,1.642,0,0,1-1.1-.36,2.005,2.005,0,0,1-.626-.9l-.726,3.425h-.726Zm1.452,5.026a1.883,1.883,0,0,0,.92-.238,2.674,2.674,0,0,0,.765-.621,3.105,3.105,0,0,0,.515-.853,2.549,2.549,0,0,0,.194-.953,2.254,2.254,0,0,0-.105-.7,1.7,1.7,0,0,0-.31-.576,1.42,1.42,0,0,0-.482-.388,1.361,1.361,0,0,0-.632-.144,1.669,1.669,0,0,0-.56.111,2.71,2.71,0,0,0-.593.3,2.447,2.447,0,0,0-.515.438,1.663,1.663,0,0,0-.338.526l-.36,1.707a1.873,1.873,0,0,0,.188.554,1.66,1.66,0,0,0,.333.443,1.611,1.611,0,0,0,.449.294A1.285,1.285,0,0,0,350.579,107.41Z" transform="translate(-202.85 -100.151)"/><path class="a" d="M362.195,108.049a2.173,2.173,0,0,1-.914-.183,1.849,1.849,0,0,1-.67-.5,2.192,2.192,0,0,1-.416-.748,2.91,2.91,0,0,1-.144-.92,3.251,3.251,0,0,1,.255-1.275,3.515,3.515,0,0,1,1.768-1.851,3.069,3.069,0,0,1,1.33-.288,2.51,2.51,0,0,1,.687.094,1.8,1.8,0,0,1,.565.283,1.258,1.258,0,0,1,.377.471,1.43,1.43,0,0,1,.139.648,1.341,1.341,0,0,1-.726,1.236,4.661,4.661,0,0,1-2.244.416c-.2,0-.416-.006-.648-.011s-.482-.022-.754-.044c-.006.055-.011.111-.017.161a1.333,1.333,0,0,0-.006.15,2.507,2.507,0,0,0,.094.687,1.815,1.815,0,0,0,.288.576,1.338,1.338,0,0,0,.482.393,1.511,1.511,0,0,0,.671.144,1.9,1.9,0,0,0,.521-.072,2.408,2.408,0,0,0,.51-.211,2.138,2.138,0,0,0,.787-.754l.6.183a2.693,2.693,0,0,1-.471.571,3.131,3.131,0,0,1-.615.449,3.242,3.242,0,0,1-.7.288A2.364,2.364,0,0,1,362.195,108.049Zm1.131-5.2a2.147,2.147,0,0,0-.876.172,2.632,2.632,0,0,0-.7.449,2.55,2.55,0,0,0-.521.643,3.141,3.141,0,0,0-.321.748c.255.017.493.028.709.039s.427.017.626.017a5.86,5.86,0,0,0,1.07-.083,2.322,2.322,0,0,0,.7-.233.967.967,0,0,0,.382-.36.946.946,0,0,0,.116-.46.752.752,0,0,0-.355-.7A1.422,1.422,0,0,0,363.325,102.851Z" transform="translate(-208.459 -100.146)"/><path class="a" d="M377.914,98.82h.643l1.369,7.581h-.793l-.416-2.372h-3.192l-1.408,2.372h-.8Zm.754,4.622-.621-3.746-2.25,3.746Z" transform="translate(-214.375 -98.604)"/></g><path class="a" d="M85.59,16.96h18.332c7.309,0,11.837,3.984,11.837,10.2,0,4.694-2.073,8.567-6.766,9.875v.111c4.528.87,5.459,4.2,5.841,8.019.327,3.824.111,8.074,2.294,10.751h-5.785c-1.474-1.585-.654-5.785-1.419-9.6-.549-3.818-1.474-7.038-6.495-7.038H90.777V55.918H85.6V16.96Zm15.988,17.955c4.86,0,9.005-1.252,9.005-6.933,0-3.818-2.073-6.656-6.927-6.656H90.777V34.915Z" transform="translate(-85.59 -16.594)"/><path class="a" d="M174.491,55.1c-1.258,6.218-5.73,9.6-12.059,9.6-9.005,0-13.261-6.223-13.533-14.84,0-8.457,5.564-14.68,13.261-14.68,9.986,0,13.039,9.332,12.768,16.154H153.815c-.166,4.91,2.616,9.277,8.783,9.277,3.818,0,6.489-1.856,7.315-5.514h4.577Zm-4.472-7.858a8.116,8.116,0,0,0-8.13-7.969c-4.854,0-7.747,3.657-8.074,7.969Z" transform="translate(-113.816 -24.717)"/><rect class="a" width="4.638" height="38.958" transform="translate(66.189 0.366)"/><path class="a" d="M343.856,35.829h4.367V40.3h.111A9.829,9.829,0,0,1,357.5,35.17c7.42,0,9.709,4.256,9.709,10.313V64.036H362.57V44.94c0-3.436-2.183-5.675-5.73-5.675-5.619,0-8.351,3.768-8.351,8.839V64.036H343.85V35.829Z" transform="translate(-200.732 -24.713)"/><path class="a" d="M226.63,64.309V35.77h8.983v4.267H231.7V64.309Z" transform="translate(-148.471 -24.98)"/><path class="a" d="M322.442,64.639V40.367H318.53V36.1h8.977V64.639Z" transform="translate(-189.443 -25.128)"/><path class="a" d="M244.17,60.776,277,27.92h6.8L250.726,60.776Z" transform="translate(-156.291 -21.481)"/><g transform="translate(77.3 0)"><path class="a" d="M230.444,17.209a3.158,3.158,0,0,1-.017,4.439,3,3,0,0,1-2.2.92,3.141,3.141,0,0,1-3.148-3.148,3,3,0,0,1,.92-2.2,3.157,3.157,0,0,1,4.444-.011" transform="translate(-225.08 -16.3)"/><path class="a" d="M328.08,16.63a3.033,3.033,0,0,1,2.228.92,3,3,0,0,1,.92,2.194,3.141,3.141,0,0,1-3.148,3.148,3,3,0,0,1-2.2-.92,3.115,3.115,0,0,1,2.2-5.342" transform="translate(-269.61 -16.447)"/><path class="a" d="M293.065,74.334h6.556l-16-16-3.336,3.225Z" transform="translate(-249.69 -35.039)"/><rect class="a" width="4.661" height="0.504" transform="matrix(0.709, -0.706, 0.706, 0.709, 26.383, 22.316)"/><path class="a" d="M271.747,52.973l-.377-.377,3.3-3.286.371.377Z" transform="translate(-245.718 -31.017)"/><rect class="a" width="4.661" height="0.587" transform="matrix(0.708, -0.706, 0.706, 0.708, 24.855, 20.78)"/><path class="a" d="M268.834,50.045l-.454-.449,3.3-3.286.449.449Z" transform="translate(-244.385 -29.68)"/><path class="a" d="M267.173,48.379l-.493-.493,3.3-3.286.488.493Z" transform="translate(-243.627 -28.917)"/><rect class="a" width="4.661" height="0.748" transform="translate(22.034 17.946) rotate(-44.919)"/><rect class="a" width="4.661" height="0.798" transform="translate(20.948 16.853) rotate(-44.919)"/><rect class="a" width="4.661" height="0.853" transform="matrix(0.709, -0.705, 0.705, 0.709, 19.787, 15.687)"/><rect class="a" width="4.655" height="0.909" transform="matrix(0.708, -0.706, 0.706, 0.708, 18.55, 14.433)"/><rect class="a" width="4.661" height="0.959" transform="matrix(0.709, -0.705, 0.705, 0.709, 17.22, 13.111)"/><rect class="a" width="4.661" height="1.014" transform="translate(15.834 11.706) rotate(-44.866)"/><path class="a" d="M251.748,32.89,251,32.131l3.22-3.209.078-.072.754.754Z" transform="translate(-236.636 -21.895)"/><path class="a" d="M249,30.971l-.792-.792,2.25-2.239h1.585Z" transform="translate(-235.392 -21.49)"/><path class="a" d="M246.122,29.375l-.792-.792.648-.643h1.585Z" transform="translate(-234.108 -21.49)"/></g></svg>