<svg xmlns="http://www.w3.org/2000/svg" xmlns:xlink="http://www.w3.org/1999/xlink" width="238.706" height="197.842" viewBox="0 0 238.706 197.842"><defs><style>.a{fill:#636464;}.b,.f{fill:#828282;}.b{font-size:51px;font-family:MyriadPro-Regular, Myriad Pro;}.c{clip-path:url(#a);}.d{fill:#626464;}.e{clip-path:url(#c);}.f{font-size:4px;font-family:MyriadPro-Bold, Myriad Pro;font-weight:700;}</style><clipPath id="a"><rect width="238.706" height="197.842"/></clipPath><clipPath id="c"><path class="a" d="M141.939,174.156c-1.5.632-1.739,3.478-.553,6.4s3.4,4.743,4.9,4.189h0c1.5-.632,1.739-3.478.553-6.4-1.028-2.529-2.846-4.268-4.268-4.268a.84.84,0,0,0-.632.079m-15.1-2.213c-1.818.711-2.292,3.873-1.107,7.035s3.715,5.217,5.533,4.505,2.292-3.873,1.107-7.035c-1.028-2.766-3.083-4.663-4.743-4.663-.316.079-.553.079-.79.158m26.321,0c-1.265.553-1.265,3.083-.079,5.77,1.186,2.608,3.162,4.268,4.347,3.715,1.265-.553,1.265-3.083.079-5.77-1.028-2.292-2.608-3.873-3.873-3.873a1.124,1.124,0,0,0-.474.158m8.062-4.268c-1.028.474-.869,2.845.237,5.217s2.925,3.952,3.873,3.478h0c1.028-.474.869-2.846-.237-5.217-1.028-2.134-2.45-3.557-3.478-3.557a.592.592,0,0,0-.4.079m-52.958-3.241c-2.213.869-3,4.268-1.66,7.588,1.265,3.32,4.11,5.375,6.323,4.505s3-4.268,1.66-7.588c-1.107-2.846-3.241-4.743-5.3-4.743a4.827,4.827,0,0,0-1.028.237m29.957-1.5c-1.265.632-1.344,3.083-.158,5.533s3.083,3.952,4.347,3.32,1.344-3.083.158-5.533c-.948-2.055-2.529-3.478-3.794-3.478a2.01,2.01,0,0,0-.553.158m10.2-1.107c-1.028.474-1.028,2.687.079,4.98s2.766,3.715,3.794,3.162c1.028-.474,1.028-2.687-.079-4.98-.948-1.976-2.371-3.32-3.4-3.32-.079.079-.237.079-.4.158M125.1,160.245c-1.5.711-1.739,3.4-.474,6.007s3.478,4.11,4.9,3.4c1.5-.711,1.739-3.4.474-6.007-1.028-2.134-2.766-3.636-4.11-3.636-.237.079-.553.158-.79.237m30.826-1.107c-.869.474-.711,2.45.316,4.505,1.107,2.055,2.687,3.32,3.557,2.845s.711-2.45-.316-4.505c-.949-1.739-2.213-2.925-3.162-2.925a3.424,3.424,0,0,0-.4.079m9.248-.079c-.79.4-.632,2.45.474,4.584,1.107,2.055,2.608,3.4,3.478,3,.79-.4.632-2.45-.474-4.584-.949-1.818-2.292-3.083-3.083-3.083a.713.713,0,0,0-.4.079m-29.878-5.77c-1.028.553-1.028,2.608,0,4.663s2.766,3.32,3.794,2.766,1.028-2.608,0-4.663c-.869-1.739-2.213-2.846-3.241-2.846a.649.649,0,0,0-.553.079m8.853-.237c-.869.474-.79,2.371.237,4.268s2.608,3,3.478,2.45c.869-.474.79-2.371-.237-4.268-.869-1.581-2.134-2.608-3-2.608-.158.079-.316.079-.474.158m-34.937.158c-1.739.869-2.055,3.794-.632,6.4,1.344,2.687,3.873,4.11,5.612,3.241s2.055-3.794.632-6.4c-1.107-2.134-2.925-3.478-4.505-3.478a1.883,1.883,0,0,0-1.107.237m50.666-1.265c-.711.4-.474,2.213.474,4.031,1.028,1.818,2.45,3,3.162,2.608s.474-2.213-.474-4.031c-.869-1.581-2.055-2.687-2.846-2.687a.475.475,0,0,0-.316.079m-8.695-.553c-.79.4-.553,2.213.4,3.952,1.028,1.739,2.371,2.766,3.162,2.371s.553-2.213-.4-3.952c-.869-1.5-1.976-2.45-2.766-2.45a.592.592,0,0,0-.4.079m-64.577-.079c-2.45,1.423-2.925,5.059-1.107,8.22s5.217,4.584,7.667,3.162,2.925-5.059,1.107-8.22a6.953,6.953,0,0,0-5.612-3.715,3.483,3.483,0,0,0-2.055.553m80.465-.949c-.711.4-.4,2.213.711,4.031,1.028,1.818,2.45,3,3.162,2.608s.4-2.213-.711-4.031c-.949-1.581-2.134-2.687-2.846-2.687a.475.475,0,0,0-.316.079m-43.236-.079c-1.186.632-1.344,2.846-.237,5.059s3,3.478,4.189,2.846,1.344-2.846.237-5.059c-.949-1.818-2.371-3-3.557-3a2.443,2.443,0,0,0-.632.158m31.222-4.9c-.632.4-.474,1.976.474,3.557.869,1.581,2.134,2.608,2.846,2.213.632-.4.474-1.976-.474-3.557-.79-1.344-1.818-2.292-2.529-2.292-.079,0-.237.079-.316.079m-14.465-.158c-.711.4-.553,2.055.316,3.636s2.213,2.529,2.925,2.134.553-2.055-.316-3.636c-.79-1.344-1.818-2.213-2.529-2.213a.713.713,0,0,0-.4.079m-7.9-.4c-.869.474-.79,2.213.079,3.873.869,1.739,2.292,2.687,3.162,2.292.869-.474.79-2.213-.079-3.873-.79-1.423-1.9-2.371-2.687-2.371a1,1,0,0,0-.474.079m29.4-.237c-.632.4-.4,1.976.553,3.636s2.213,2.687,2.846,2.292h0c.632-.4.4-1.976-.553-3.636-.79-1.423-1.9-2.371-2.608-2.371-.079,0-.158.079-.237.079m-15.1-.316c-.632.316-.4,1.818.4,3.32.869,1.5,2.055,2.371,2.687,2.055h0c.632-.316.4-1.818-.4-3.32-.711-1.265-1.739-2.134-2.371-2.134a.475.475,0,0,1-.316.079M110.48,143.8c-1.344.711-1.5,3.083-.316,5.3s3.241,3.32,4.584,2.608,1.5-3.083.316-5.3c-.949-1.739-2.45-2.846-3.715-2.846a2.06,2.06,0,0,0-.869.237m12.251-1.9c-.949.553-.869,2.45.158,4.189s2.687,2.687,3.636,2.134.869-2.45-.158-4.189a4.166,4.166,0,0,0-3-2.292,1.489,1.489,0,0,0-.632.158m-31.142-.237c-1.818,1.186-1.9,4.268-.237,6.8s4.505,3.636,6.323,2.371c1.818-1.186,1.9-4.268.237-6.8a5.935,5.935,0,0,0-4.584-2.925,4.1,4.1,0,0,0-1.739.553m75.564-.711c-.632.316-.316,1.976.632,3.636s2.213,2.687,2.846,2.371h0c.632-.316.316-1.976-.632-3.636-.869-1.423-1.9-2.45-2.529-2.45-.158,0-.237,0-.316.079m-16.52-1.5c-.553.316-.4,1.739.4,3.083s1.9,2.213,2.45,1.9.4-1.739-.4-3.083c-.711-1.186-1.581-1.976-2.213-1.976a.29.29,0,0,0-.237.079m6.64-.158c-.553.316-.237,1.818.632,3.241s2.055,2.292,2.608,1.976.237-1.818-.632-3.241c-.79-1.265-1.739-2.055-2.371-2.055a.29.29,0,0,0-.237.079m4.98-2.766c-.553.316-.158,1.818.79,3.241s2.134,2.371,2.687,2.055.158-1.818-.79-3.241c-.79-1.265-1.818-2.055-2.371-2.055-.158-.079-.237,0-.316,0m-50.745-.553c-1.028.632-1.028,2.608,0,4.347s2.766,2.687,3.873,2.055c1.028-.632,1.028-2.608,0-4.347a4.141,4.141,0,0,0-3.083-2.292c-.316.079-.553.158-.79.237m41.418-1.66c-.474.316-.237,1.5.553,2.766s1.818,1.976,2.292,1.739c.474-.316.237-1.5-.553-2.766-.632-1.028-1.5-1.739-2.055-1.739h-.237m-57.068-.632c-1.423.949-1.423,3.478,0,5.612s3.715,3.083,5.138,2.134,1.423-3.478,0-5.612a5.129,5.129,0,0,0-3.873-2.529,1.859,1.859,0,0,0-1.265.4m61.969-1.344c-.474.316-.158,1.66.632,2.925.869,1.265,1.9,2.134,2.45,1.818h0c.474-.316.158-1.66-.632-2.925-.711-1.107-1.66-1.818-2.134-1.818-.158-.079-.237-.079-.316,0m-93.428.79c-2.134,2.134-1.66,5.928.949,8.616,2.608,2.608,6.481,3.083,8.616.948s1.66-5.928-.949-8.616a7.443,7.443,0,0,0-5.138-2.292,5.038,5.038,0,0,0-3.478,1.344m100.857-1.976c-.553.316-.158,1.818.79,3.32s2.213,2.371,2.687,2.055c.553-.316.158-1.818-.79-3.32-.869-1.265-1.818-2.134-2.45-2.134-.079,0-.158.079-.237.079m-11.619-2.766c-.4.237-.158,1.423.553,2.529s1.66,1.818,2.134,1.581c.4-.237.158-1.423-.553-2.529-.632-.949-1.423-1.66-1.9-1.66a.29.29,0,0,0-.237.079m7.43-.474c-.474.316-.158,1.66.711,3s1.976,2.213,2.45,1.9.158-1.66-.711-3c-.79-1.186-1.66-1.976-2.213-1.976a.29.29,0,0,0-.237.079m-61.811-.553c-1.028.79-.869,2.845.4,4.584s3.162,2.529,4.189,1.739.869-2.846-.4-4.584a4.572,4.572,0,0,0-3.241-2.055,1.519,1.519,0,0,0-.949.316m-25.61-1.107c-1.66,1.66-1.186,4.743,1.028,6.956s5.375,2.687,6.956,1.028c1.66-1.66,1.186-4.743-1.028-6.956a6.541,6.541,0,0,0-4.426-2.055,3.339,3.339,0,0,0-2.529,1.028m83.31-1.5c-.4.237-.158,1.5.711,2.687.79,1.186,1.818,1.976,2.213,1.739s.158-1.5-.711-2.687c-.711-1.028-1.5-1.739-1.976-1.739a.148.148,0,0,0-.237,0m-3.873-3.083c-.4.237-.079,1.344.632,2.371.711,1.107,1.581,1.739,1.976,1.5s.079-1.344-.632-2.371c-.632-.948-1.344-1.581-1.739-1.581a.29.29,0,0,1-.237.079m-71.691-1.107c-1.344,1.186-.949,3.715.79,5.691s4.189,2.608,5.533,1.5h0c1.344-1.186.949-3.715-.79-5.691a5.421,5.421,0,0,0-3.873-2.055,1.952,1.952,0,0,0-1.66.553m77.777-1.107c-.474.316-.158,1.66.711,3s1.976,2.213,2.45,1.9c.237-.158.237-.553.158-1.028.158.316.4.711.632,1.107.869,1.344,1.976,2.213,2.45,1.9s.158-1.66-.79-3.083c-.869-1.344-1.976-2.213-2.45-1.9-.237.158-.237.553-.158,1.028a6.53,6.53,0,0,0-.553-1.028c-.79-1.186-1.66-1.976-2.213-1.976-.079,0-.158.079-.237.079m-4.268-2.608c-.4.237-.079,1.423.632,2.529s1.66,1.9,2.055,1.581c.4-.237.079-1.423-.632-2.529-.632-1.028-1.423-1.66-1.9-1.66a.276.276,0,0,1-.158.079m-67.5-.711c-1.028.869-.632,2.925.79,4.584s3.4,2.213,4.426,1.344h0c1.028-.869.632-2.925-.79-4.584a4.758,4.758,0,0,0-3.241-1.739,1.3,1.3,0,0,0-1.186.4m63.945-1.344c-.4.237,0,1.344.711,2.371.79,1.028,1.66,1.739,2.055,1.423.4-.237,0-1.344-.79-2.371-.632-.869-1.423-1.5-1.818-1.5a.245.245,0,0,1-.158.079M44.8,111.713c-1.344,2.529.316,6.086,3.794,7.983s7.43,1.423,8.774-1.028c1.344-2.529-.316-6.086-3.794-7.983a9.244,9.244,0,0,0-4.347-1.186,4.85,4.85,0,0,0-4.426,2.213M58,108.077c-1.265,1.818-.237,4.822,2.45,6.719,2.608,1.9,5.849,1.9,7.114.079h0c1.265-1.818.237-4.822-2.45-6.719a7.415,7.415,0,0,0-4.189-1.423A3.81,3.81,0,0,0,58,108.077m10.513-2.766c-1.186,1.344-.474,3.794,1.581,5.612,1.976,1.739,4.584,2.134,5.77.869,1.186-1.344.474-3.794-1.581-5.612a6.086,6.086,0,0,0-3.794-1.581,2.755,2.755,0,0,0-1.976.711m8.378-1.818c-.949.949-.4,3,1.186,4.426,1.581,1.5,3.636,1.9,4.505.869.948-.949.4-3-1.186-4.426a4.764,4.764,0,0,0-3.162-1.423,1.628,1.628,0,0,0-1.344.553m-8.22-13.279c-.79,1.028-.079,2.925,1.581,4.347,1.739,1.423,3.715,1.739,4.584.711.79-1.028.079-2.925-1.581-4.347A5.079,5.079,0,0,0,70.09,89.66a2.107,2.107,0,0,0-1.423.553m-9.8-.711c-1.028,1.265-.079,3.636,2.055,5.3s4.663,1.976,5.612.632c1.028-1.265.079-3.636-2.055-5.3a6.466,6.466,0,0,0-3.715-1.423,2.343,2.343,0,0,0-1.9.79m-12.093-.553c-1.107,1.66.237,4.505,3,6.244s5.849,1.818,6.956.158-.237-4.505-3-6.244a7.715,7.715,0,0,0-4.268-1.344,2.7,2.7,0,0,0-2.687,1.186m-15.334-.711c-1.186,2.213.79,5.612,4.347,7.509,3.636,1.976,7.509,1.739,8.695-.474h0c1.186-2.213-.79-5.612-4.347-7.509a10.919,10.919,0,0,0-4.9-1.344,4.078,4.078,0,0,0-3.794,1.818M63.53,77.567c-.711.869.079,2.766,1.739,4.189,1.739,1.423,3.715,1.818,4.426.869s-.079-2.766-1.739-4.189a5.609,5.609,0,0,0-3.241-1.344,1.491,1.491,0,0,0-1.186.474M52.938,74.642c-.869,1.186.237,3.4,2.45,4.98,2.213,1.5,4.663,1.818,5.454.632.869-1.186-.237-3.4-2.45-4.98a6.907,6.907,0,0,0-3.715-1.344,2.207,2.207,0,0,0-1.739.711M40.37,71.085c-.948,1.423.553,4.11,3.32,5.849s5.77,2.055,6.719.553c.949-1.423-.553-4.11-3.32-5.849a8.463,8.463,0,0,0-4.505-1.5,2.462,2.462,0,0,0-2.213.949M61.4,66.9c-.632.869.158,2.529,1.9,3.794,1.66,1.265,3.557,1.581,4.189.711s-.158-2.529-1.9-3.794a5.209,5.209,0,0,0-3-1.186A1.387,1.387,0,0,0,61.4,66.9m-36.517-.237c-1.107,1.9.869,5.059,4.347,7.035s7.193,2.134,8.3.237-.869-5.059-4.347-7.035a10.946,10.946,0,0,0-5.217-1.581,3.388,3.388,0,0,0-3.083,1.344m86.946-5.138c-.237.237.158,1.107,1.028,1.976.79.869,1.66,1.344,1.976,1.107h0c.237-.237-.158-1.107-1.028-1.976a3.85,3.85,0,0,0-1.739-1.186c-.158,0-.237,0-.237.079m-60.783.4c-.711,1.028.4,3.083,2.529,4.584s4.505,1.9,5.217.869-.4-3.083-2.529-4.584a6.882,6.882,0,0,0-3.794-1.423,1.6,1.6,0,0,0-1.423.553M111.192,58.2c-.316.316.237,1.344,1.107,2.292.949.948,1.9,1.5,2.213,1.265.316-.316-.237-1.344-1.107-2.292a4.245,4.245,0,0,0-1.976-1.344.29.29,0,0,0-.237.079m-49.085,0c-.553.711.316,2.292,1.9,3.478s3.32,1.581,3.873.869h0c.553-.711-.316-2.292-1.9-3.478a5.206,5.206,0,0,0-2.925-1.186,1.154,1.154,0,0,0-.949.316m42.683-1.66c-.316.316.158,1.265,1.028,2.134s1.818,1.423,2.055,1.107c.316-.316-.158-1.265-1.028-2.134a3.609,3.609,0,0,0-1.818-1.186.29.29,0,0,0-.237.079m-65.684-.4c-.869,1.265.474,3.715,3,5.533s5.3,2.213,6.165.949-.474-3.715-3-5.533a8.354,8.354,0,0,0-4.426-1.66,2,2,0,0,0-1.739.711M110.559,54.8c-.316.316.237,1.423,1.186,2.529,1.028,1.028,2.134,1.66,2.45,1.344s-.237-1.423-1.186-2.529a4.051,4.051,0,0,0-2.213-1.423.29.29,0,0,0-.237.079m-7.272-2.213c-.316.316.237,1.423,1.344,2.45,1.028,1.028,2.134,1.5,2.45,1.186h0c.316-.316-.237-1.423-1.344-2.45a4.623,4.623,0,0,0-2.213-1.344c-.079.079-.158.079-.237.158m-5.77-.158c-.316.316.237,1.265,1.186,2.213.948.869,1.976,1.423,2.292,1.107h0c.316-.316-.237-1.265-1.186-2.213a3.6,3.6,0,0,0-1.976-1.186c-.158-.079-.237,0-.316.079m-32.328-.4c-.474.632.316,2.055,1.818,3.32,1.5,1.186,3.162,1.66,3.636,1.028h0c.474-.632-.316-2.055-1.818-3.32A5.04,5.04,0,0,0,65.9,51.72a1.489,1.489,0,0,0-.711.316M52.7,52.115c-.632.869.4,2.766,2.292,4.189,1.976,1.5,4.031,1.976,4.663,1.107h0c.632-.869-.4-2.766-2.292-4.189a6.632,6.632,0,0,0-3.636-1.5,1.5,1.5,0,0,0-1.028.4m57.226-.79c-.4.316.237,1.581,1.344,2.766s2.292,1.818,2.687,1.5-.237-1.581-1.344-2.766a4.954,4.954,0,0,0-2.371-1.581c-.158,0-.237,0-.316.079m-19.444-1.5c-.316.316.237,1.423,1.186,2.371,1.028.949,2.055,1.423,2.45,1.107.316-.316-.158-1.423-1.186-2.371A3.908,3.908,0,0,0,90.8,49.744c-.158,0-.237,0-.316.079m-66.237-.237c-.869,1.5,1.107,4.347,4.505,6.323s6.877,2.292,7.746.79-1.107-4.347-4.505-6.323a12.047,12.047,0,0,0-5.454-1.739,2.523,2.523,0,0,0-2.292.949m77.7-1.107c-.316.316.316,1.5,1.423,2.608s2.292,1.66,2.687,1.344c.316-.316-.316-1.5-1.423-2.608A4.914,4.914,0,0,0,102.26,48.4c-.158,0-.237,0-.316.079M70.09,48.4c-.474.553.316,1.9,1.66,3s2.846,1.581,3.32,1.107c.474-.553-.316-1.9-1.66-3a5.32,5.32,0,0,0-2.687-1.265.573.573,0,0,0-.632.158M95.3,47.689c-.316.316.237,1.423,1.344,2.529,1.107,1.028,2.213,1.581,2.529,1.265h0c.316-.316-.237-1.423-1.344-2.529a4.451,4.451,0,0,0-2.292-1.344c-.079,0-.158.079-.237.079m-12.172-.4c-.4.4.237,1.5,1.265,2.529C85.5,50.851,86.61,51.4,87,51.009s-.237-1.5-1.265-2.529a4.193,4.193,0,0,0-2.292-1.265c-.158-.079-.237,0-.316.079m-6.956-.4c-.4.474.237,1.739,1.423,2.766,1.186,1.107,2.529,1.581,2.925,1.107s-.237-1.739-1.423-2.766a4.519,4.519,0,0,0-2.45-1.265c-.158-.079-.316,0-.474.158M56.811,45.476c-.553.79.474,2.45,2.292,3.873,1.818,1.344,3.715,1.9,4.347,1.107.553-.79-.474-2.45-2.292-3.873a6.494,6.494,0,0,0-3.4-1.5c-.474.079-.79.158-.948.4M41.556,45.16c-.711,1.028.632,3.241,3,4.98,2.371,1.66,4.98,2.213,5.691,1.186s-.632-3.241-3-4.98a8.134,8.134,0,0,0-4.347-1.66,1.58,1.58,0,0,0-1.344.474m45.528-.711c-.4.4.237,1.66,1.423,2.766s2.45,1.739,2.846,1.344-.237-1.66-1.423-2.766a4.743,4.743,0,0,0-2.45-1.423.348.348,0,0,0-.4.079m13.437-.158c-.4.4.316,1.66,1.5,2.846s2.529,1.9,2.846,1.5c.4-.4-.316-1.66-1.5-2.846a5.312,5.312,0,0,0-2.608-1.66,1.137,1.137,0,0,0-.237.158m-7.588-1.423c-.4.4.237,1.66,1.423,2.846s2.45,1.818,2.846,1.423-.237-1.66-1.423-2.846a4.886,4.886,0,0,0-2.529-1.581.6.6,0,0,0-.316.158M63.055,41.761c-.553.632.4,2.213,2.055,3.557s3.4,1.9,3.873,1.186c.553-.632-.4-2.213-2.055-3.557a5.919,5.919,0,0,0-3.162-1.5,1,1,0,0,0-.711.316m15.571-.4c-.4.474.316,1.818,1.66,2.925,1.344,1.186,2.687,1.739,3.083,1.265h0c.4-.474-.316-1.818-1.66-2.925a5.216,5.216,0,0,0-2.687-1.423.6.6,0,0,0-.4.158M70.564,40.5c-.4.553.4,1.976,1.9,3.162,1.5,1.265,3.083,1.818,3.478,1.265.474-.553-.4-1.976-1.9-3.162a5.562,5.562,0,0,0-3-1.5,1.287,1.287,0,0,0-.474.237m12.963-1.66c-.4.474.4,1.818,1.739,3.083s2.846,1.9,3.241,1.5h0c.4-.474-.4-1.818-1.739-3.083a5.461,5.461,0,0,0-2.846-1.66c-.158,0-.237.079-.4.158m6.877-.949c-.4.474.4,1.818,1.739,3.083s2.846,1.9,3.241,1.5c.4-.474-.4-1.818-1.739-3.083A5.461,5.461,0,0,0,90.8,37.73c-.158,0-.316,0-.4.158m-42.92.237c-.632.869.632,2.846,2.766,4.505,2.134,1.581,4.426,2.213,5.059,1.265.632-.869-.632-2.846-2.766-4.505a7.746,7.746,0,0,0-4.031-1.739,1.568,1.568,0,0,0-1.028.474m-18.733-.869c-.869,1.344.869,3.952,3.794,5.849s6.086,2.371,6.877,1.028c.869-1.344-.869-3.952-3.794-5.849a9.689,9.689,0,0,0-5.059-1.739,1.8,1.8,0,0,0-1.818.711M73.8,35.042c-.4.474.474,1.976,1.976,3.32s3.083,1.976,3.557,1.5c.4-.474-.474-1.976-1.976-3.32a6.214,6.214,0,0,0-3.083-1.66.668.668,0,0,0-.474.158M55.23,34.331c-.553.711.553,2.608,2.529,4.11,1.976,1.581,4.031,2.213,4.584,1.5h0c.553-.711-.553-2.608-2.529-4.11a7.349,7.349,0,0,0-3.873-1.739.6.6,0,0,0-.711.237m9.09-.79c-.474.632.474,2.292,2.134,3.715,1.739,1.423,3.478,2.134,4.031,1.5.474-.632-.474-2.292-2.134-3.715a6.262,6.262,0,0,0-3.4-1.739.9.9,0,0,0-.632.237m15.65-.553c-.474.474.4,1.976,1.976,3.4,1.5,1.423,3.083,2.134,3.557,1.66s-.4-1.976-1.976-3.4a6.039,6.039,0,0,0-3.162-1.818c-.158,0-.316,0-.4.158M36.655,29.747c-.79,1.107.711,3.478,3.32,5.3s5.375,2.371,6.165,1.265-.711-3.478-3.32-5.3a8.984,8.984,0,0,0-4.663-1.818,1.5,1.5,0,0,0-1.5.553m32.407-1.581c-.079,0-.237,0-.237.158h0a1.541,1.541,0,0,0-.079.632.475.475,0,0,0,.079.316,5.312,5.312,0,0,0,.474.949,10.483,10.483,0,0,0,2.055,2.134,8.664,8.664,0,0,0,1.66,1.107,4.57,4.57,0,0,0,1.107.4c.474.079.79.079.949-.158a1,1,0,0,0,0-.949c0-.079-.079-.158-.158-.316A9.509,9.509,0,0,0,72.777,29.9h0a6.33,6.33,0,0,0-1.66-1.186h0a3.784,3.784,0,0,0-1.9-.711c.079.158-.079.158-.158.158M46.694,26.427c-.711.949.553,3,2.766,4.663s4.584,2.213,5.3,1.344c.711-.949-.553-3-2.766-4.663A7.912,7.912,0,0,0,47.8,26.032a1.1,1.1,0,0,0-1.107.4m11.224-.4c-.632.79.316,2.687,2.134,4.268s3.873,2.292,4.505,1.581c.632-.79-.316-2.687-2.134-4.268a6.412,6.412,0,0,0-3.715-1.818.88.88,0,0,0-.79.237" transform="translate(-24.041 -25.773)"/></clipPath></defs><text class="b" transform="translate(85.992 96.704)"><tspan x="0" y="0">Skin</tspan></text><text class="b" transform="translate(181.071 96.704)"><tspan x="0" y="0">n</tspan></text><g class="c"><path class="d" d="M239.491,122.5a2.85,2.85,0,1,1-2.846-3,2.921,2.921,0,0,1,2.846,3" transform="translate(-49 -25.045)"/></g><g class="c"><rect class="d" width="4.663" height="21.183" transform="translate(185.353 72.402)"/></g><g transform="translate(19.003 20.372)"><g class="e"><path class="a" d="M-72.1,60.742,101.713-62.8,226.836,113.226,52.944,236.769Z" transform="translate(-3.892 -7.21)"/></g></g><text class="f" transform="translate(89.083 104.887)"><tspan x="0" y="0">ADVANCED MICRONEEDLING SYSTEM</tspan></text></svg>