<svg xmlns="http://www.w3.org/2000/svg" width="37.694" height="40.438" viewBox="0 0 37.694 40.438"><defs><style>.a{fill:none;stroke:#233297;stroke-width:1.2px;}</style></defs><path class="a" d="M27.959,17.568H14.926v2.607H27.959Zm-7.82-5.213H14.926v2.607h5.213Zm15.64-1.119V7.141H30.044l-7.3-5.213-7.3,5.213H9.712v4.095L4.5,14.962V41.029H40.993V14.962l-5.213-3.726ZM12.319,9.748H33.173v9.971l-10.427,8.6-10.427-8.6V9.748ZM7.105,20.175l10.265,7.8L7.105,35.815V20.175ZM9.712,38.422l10.345-8.4,2.688,2.047,2.683-2.042,10.35,8.4H9.712Zm28.674-2.607L28.107,27.993l10.279-7.818v15.64Z" transform="translate(-3.899 -1.191)"/></svg>