<svg xmlns="http://www.w3.org/2000/svg" width="48" height="48" viewBox="0 0 48 48"><defs><style>.a,.d{fill:none;}.a{stroke:#828282;}.b{fill:#828282;}.c{stroke:none;}</style></defs><g transform="translate(-699 -2778)"><g class="a" transform="translate(699 2778)"><circle class="c" cx="24" cy="24" r="24"/><circle class="d" cx="24" cy="24" r="23.5"/></g><path class="b" d="M17.226,7.267c.012.171.012.341.012.512a11.119,11.119,0,0,1-11.2,11.2A11.12,11.12,0,0,1,0,17.208a8.141,8.141,0,0,0,.95.049,7.881,7.881,0,0,0,4.885-1.681,3.942,3.942,0,0,1-3.679-2.729,4.962,4.962,0,0,0,.743.061,4.162,4.162,0,0,0,1.036-.134A3.935,3.935,0,0,1,.78,8.912V8.863a3.963,3.963,0,0,0,1.779.5A3.941,3.941,0,0,1,1.34,4.1,11.185,11.185,0,0,0,9.454,8.217a4.442,4.442,0,0,1-.1-.9,3.939,3.939,0,0,1,6.81-2.692,7.747,7.747,0,0,0,2.5-.95,3.924,3.924,0,0,1-1.73,2.168A7.888,7.888,0,0,0,19.2,5.233a8.459,8.459,0,0,1-1.974,2.034Z" transform="translate(713 2790.619)"/></g></svg>