<svg xmlns="http://www.w3.org/2000/svg" width="48" height="48" viewBox="0 0 48 48"><defs><style>.a,.d{fill:none;}.a{stroke:#828282;}.b{fill:#828282;}.c{stroke:none;}</style></defs><g transform="translate(-763 -2778)"><g class="a" transform="translate(763 2778)"><circle class="c" cx="24" cy="24" r="24"/><circle class="d" cx="24" cy="24" r="23.5"/></g><path class="b" d="M3.76,16.8H.277V5.584H3.76ZM2.017,4.054A2.027,2.027,0,1,1,4.034,2.018,2.034,2.034,0,0,1,2.017,4.054ZM16.8,16.8H13.321V11.34c0-1.3-.026-2.97-1.811-2.97-1.811,0-2.088,1.414-2.088,2.876V16.8H5.942V5.584h3.34v1.53h.049a3.66,3.66,0,0,1,3.3-1.811c3.525,0,4.173,2.321,4.173,5.336V16.8Z" transform="translate(779 2793.999)"/></g></svg>