<svg xmlns="http://www.w3.org/2000/svg" width="128" height="29.714" viewBox="0 0 128 29.714"><defs><style>.a{fill:#233297;}</style></defs><g transform="translate(-319.5 -1391)"><path class="a" d="M33.036,13.661H22.529L19.336,4.132a1.157,1.157,0,0,0-2.171,0l-3.193,9.529H3.393A1.146,1.146,0,0,0,2.25,14.8.84.84,0,0,0,2.271,15a1.1,1.1,0,0,0,.479.807l8.636,6.086L8.071,31.525a1.146,1.146,0,0,0,.393,1.286,1.105,1.105,0,0,0,.643.279,1.4,1.4,0,0,0,.714-.257l8.429-6.007,8.429,6.007a1.338,1.338,0,0,0,.714.257,1.026,1.026,0,0,0,.636-.279,1.132,1.132,0,0,0,.393-1.286l-3.314-9.636,8.564-6.143.207-.179a1.2,1.2,0,0,0,.371-.764A1.21,1.21,0,0,0,33.036,13.661Z" transform="translate(413.25 1387.625)"/><path class="a" d="M33.036,13.661H22.529L19.336,4.132a1.157,1.157,0,0,0-2.171,0l-3.193,9.529H3.393A1.146,1.146,0,0,0,2.25,14.8.84.84,0,0,0,2.271,15a1.1,1.1,0,0,0,.479.807l8.636,6.086L8.071,31.525a1.146,1.146,0,0,0,.393,1.286,1.105,1.105,0,0,0,.643.279,1.4,1.4,0,0,0,.714-.257l8.429-6.007,8.429,6.007a1.338,1.338,0,0,0,.714.257,1.026,1.026,0,0,0,.636-.279,1.132,1.132,0,0,0,.393-1.286l-3.314-9.636,8.564-6.143.207-.179a1.2,1.2,0,0,0,.371-.764A1.21,1.21,0,0,0,33.036,13.661Z" transform="translate(365.25 1387.625)"/><path class="a" d="M33.036,13.661H22.529L19.336,4.132a1.157,1.157,0,0,0-2.171,0l-3.193,9.529H3.393A1.146,1.146,0,0,0,2.25,14.8.84.84,0,0,0,2.271,15a1.1,1.1,0,0,0,.479.807l8.636,6.086L8.071,31.525a1.146,1.146,0,0,0,.393,1.286,1.105,1.105,0,0,0,.643.279,1.4,1.4,0,0,0,.714-.257l8.429-6.007,8.429,6.007a1.338,1.338,0,0,0,.714.257,1.026,1.026,0,0,0,.636-.279,1.132,1.132,0,0,0,.393-1.286l-3.314-9.636,8.564-6.143.207-.179a1.2,1.2,0,0,0,.371-.764A1.21,1.21,0,0,0,33.036,13.661Z" transform="translate(317.25 1387.625)"/></g></svg>